<svg width="480" height="306" viewBox="0 0 480 306" fill="none" xmlns="http://www.w3.org/2000/svg">
<path d="M453 299H33.5748C18.4204 299 8.77159 282.802 15.988 269.476L76.1798 158.324C79.4861 152.219 79.3892 144.835 75.9238 138.819L17.2688 36.9821C9.58921 23.6488 19.2128 7 34.5997 7H453C464.046 7 473 15.9543 473 27V279C473 290.046 464.046 299 453 299Z" fill="#FF000D" stroke="#FF0332" stroke-width="13"/>
<path d="M174 95L197.5 155L168.5 211H238L287 250.5L306 190.5L358 155L306 116L287 56L238 95H174Z" fill="#FFEC59" stroke="#FFEC59" stroke-width="4"/>
</svg>
