<svg width="480" height="306" viewBox="0 0 480 306" fill="none" xmlns="http://www.w3.org/2000/svg">
<path d="M184.69 122.294L194.667 147.766C196.489 152.419 196.504 157.586 194.707 162.25L185.403 186.4C180.115 200.128 190.957 214.675 205.624 213.529L230.077 211.619C235.166 211.221 240.213 212.784 244.187 215.987L264.216 232.133C275.174 240.967 291.586 236.019 295.835 222.6L303.915 197.085C305.266 192.819 308.009 189.129 311.705 186.605L334.924 170.754C346.244 163.026 346.613 146.459 335.648 138.236L311.131 119.848C307.794 117.345 305.323 113.862 304.064 109.886L295.776 83.7143C291.543 70.3466 275.226 65.3715 264.254 74.1036L243.467 90.6485C239.927 93.466 235.537 95 231.012 95H203.313C189.225 95 179.552 109.176 184.69 122.294Z" stroke="#FE6D88" stroke-width="13"/>
<path d="M453 299H33.5748C18.4204 299 8.77159 282.802 15.988 269.476L76.1798 158.324C79.4861 152.219 79.3892 144.835 75.9238 138.819L17.2688 36.9821C9.58921 23.6488 19.2128 7 34.5997 7H453C464.046 7 473 15.9543 473 27V279C473 290.046 464.046 299 453 299Z" stroke="#FE6D88" stroke-width="13"/>
</svg>
