<?xml version="1.0" encoding="UTF-8"?>
<!DOCTYPE svg PUBLIC "-//W3C//DTD SVG 1.1//EN" "http://www.w3.org/Graphics/SVG/1.1/DTD/svg11.dtd">
<svg xmlns="http://www.w3.org/2000/svg" version="1.1" width="800px" height="800px" style="shape-rendering:geometricPrecision; text-rendering:geometricPrecision; image-rendering:optimizeQuality; fill-rule:evenodd; clip-rule:evenodd" xmlns:xlink="http://www.w3.org/1999/xlink">
<g><path style="opacity:1" fill="#fefefe" d="M -0.5,-0.5 C 266.167,-0.5 532.833,-0.5 799.5,-0.5C 799.5,266.167 799.5,532.833 799.5,799.5C 532.833,799.5 266.167,799.5 -0.5,799.5C -0.5,532.833 -0.5,266.167 -0.5,-0.5 Z"/></g>
<g><path style="opacity:1" fill="#020202" d="M 520.5,243.5 C 547.473,242.627 564.806,254.96 572.5,280.5C 582.839,280.334 593.172,280.5 603.5,281C 606.057,281.685 607.891,283.185 609,285.5C 610.723,291.246 609.223,295.746 604.5,299C 593.818,299.168 583.151,299.668 572.5,300.5C 564.511,325.169 547.511,337.002 521.5,336C 500.914,331.914 487.914,319.747 482.5,299.5C 387.833,299.667 293.166,299.5 198.5,299C 192.533,295.608 191.033,290.774 194,284.5C 195.214,282.951 196.714,281.785 198.5,281C 293.166,280.5 387.833,280.333 482.5,280.5C 487.94,260.727 500.607,248.393 520.5,243.5 Z"/></g>
<g><path style="opacity:1" fill="#fbfbfb" d="M 520.5,263.5 C 535.806,261.677 546.639,267.677 553,281.5C 556.354,296.625 551.187,307.791 537.5,315C 513.194,319.361 501.027,309.194 501,284.5C 503.95,274.055 510.45,267.055 520.5,263.5 Z"/></g>
<g><path style="opacity:1" fill="#030303" d="M 316.5,389.5 C 361.335,390.167 406.335,390.833 451.5,391.5C 457.65,398.255 463.65,398.089 469.5,391C 512.832,390.5 556.165,390.333 599.5,390.5C 603.975,391.764 606.308,394.764 606.5,399.5C 606.308,404.236 603.975,407.236 599.5,408.5C 578.5,408.5 557.5,408.5 536.5,408.5C 535.782,402.789 532.449,399.789 526.5,399.5C 520.604,400.101 516.604,403.101 514.5,408.5C 511.833,408.5 509.167,408.5 506.5,408.5C 504.952,402.956 501.286,399.956 495.5,399.5C 493.167,400.167 490.833,400.833 488.5,401.5C 480.161,397.341 474.828,399.674 472.5,408.5C 469.833,408.5 467.167,408.5 464.5,408.5C 464.802,405.941 464.468,403.607 463.5,401.5C 461.923,398.983 460.09,398.983 458,401.5C 457.503,403.81 457.337,406.143 457.5,408.5C 450.5,408.5 443.5,408.5 436.5,408.5C 440.312,407.676 444.312,407.176 448.5,407C 452.5,404.667 452.5,402.333 448.5,400C 444.514,399.501 440.514,399.334 436.5,399.5C 437.09,394.49 435.09,392.824 430.5,394.5C 429.557,399.1 429.223,403.767 429.5,408.5C 426.15,408.665 422.817,408.498 419.5,408C 425.474,407.345 426.807,404.679 423.5,400C 416.496,398.558 411.83,401.225 409.5,408C 405.179,408.499 400.846,408.666 396.5,408.5C 392.87,399.759 387.037,397.759 379,402.5C 370.892,397.592 365.059,399.592 361.5,408.5C 358.813,408.664 356.146,408.497 353.5,408C 351.125,402.353 346.792,399.52 340.5,399.5C 335.561,400.597 331.894,403.43 329.5,408C 327.19,408.497 324.857,408.663 322.5,408.5C 322.579,407.07 322.246,405.736 321.5,404.5C 315.09,398.05 308.59,398.05 302,404.5C 299.69,409.266 299.023,414.266 300,419.5C 301.996,422.986 304.163,426.319 306.5,429.5C 288.448,447.562 268.115,450.395 245.5,438C 236.085,431.018 229.752,421.851 226.5,410.5C 216.183,409.668 205.849,409.168 195.5,409C 186.167,402.667 186.167,396.333 195.5,390C 205.828,389.5 216.161,389.334 226.5,389.5C 232.885,366.8 247.885,354.8 271.5,353.5C 295.128,354.804 310.128,366.804 316.5,389.5 Z"/></g>
<g><path style="opacity:1" fill="#f8f8f8" d="M 266.5,426.5 C 258.844,424.517 252.844,420.184 248.5,413.5C 241.078,397.163 245.078,384.33 260.5,375C 278.713,369.523 291.213,375.69 298,393.5C 299.47,410.064 292.303,420.897 276.5,426C 273.183,426.498 269.85,426.665 266.5,426.5 Z"/></g>
<g><path style="opacity:1" fill="#3a3a3a" d="M 316.5,389.5 C 411.001,389.167 505.335,389.501 599.5,390.5C 556.165,390.333 512.832,390.5 469.5,391C 463.65,398.089 457.65,398.255 451.5,391.5C 406.335,390.833 361.335,390.167 316.5,389.5 Z"/></g>
<g><path style="opacity:1" fill="#292929" d="M 436.5,408.5 C 435.833,408.5 435.167,408.5 434.5,408.5C 434.414,407.504 434.748,406.671 435.5,406C 440.155,405.501 444.821,405.334 449.5,405.5C 449.5,404.167 449.5,402.833 449.5,401.5C 444.5,401.5 439.5,401.5 434.5,401.5C 434.5,399.5 434.5,397.5 434.5,395.5C 433.5,395.5 432.5,395.5 431.5,395.5C 431.5,399.833 431.5,404.167 431.5,408.5C 430.833,408.5 430.167,408.5 429.5,408.5C 429.223,403.767 429.557,399.1 430.5,394.5C 435.09,392.824 437.09,394.49 436.5,399.5C 440.514,399.334 444.514,399.501 448.5,400C 452.5,402.333 452.5,404.667 448.5,407C 444.312,407.176 440.312,407.676 436.5,408.5 Z"/></g>
<g><path style="opacity:1" fill="#040404" d="M 434.5,408.5 C 433.5,408.5 432.5,408.5 431.5,408.5C 431.5,404.167 431.5,399.833 431.5,395.5C 432.5,395.5 433.5,395.5 434.5,395.5C 434.5,397.5 434.5,399.5 434.5,401.5C 439.5,401.5 444.5,401.5 449.5,401.5C 449.5,402.833 449.5,404.167 449.5,405.5C 444.821,405.334 440.155,405.501 435.5,406C 434.748,406.671 434.414,407.504 434.5,408.5 Z"/></g>
<g><path style="opacity:1" fill="#080808" d="M 316.5,409.5 C 315.962,411.117 315.629,412.784 315.5,414.5C 313.883,415.038 312.216,415.371 310.5,415.5C 311.371,411.668 313.038,408.334 315.5,405.5C 306.866,404.968 303.366,408.968 305,417.5C 306.571,419.923 308.737,421.256 311.5,421.5C 311.267,423.062 310.6,424.395 309.5,425.5C 303.643,423.837 300.643,419.837 300.5,413.5C 302.343,403.453 308.009,399.953 317.5,403C 319.607,404.264 320.607,406.097 320.5,408.5C 318.901,408.232 317.568,408.566 316.5,409.5 Z"/></g>
<g><path style="opacity:1" fill="#282828" d="M 536.5,408.5 C 535.833,408.5 535.167,408.5 534.5,408.5C 533.976,403.882 531.309,401.549 526.5,401.5C 521.473,401.541 518.14,403.874 516.5,408.5C 515.833,408.5 515.167,408.5 514.5,408.5C 516.604,403.101 520.604,400.101 526.5,399.5C 532.449,399.789 535.782,402.789 536.5,408.5 Z"/></g>
<g><path style="opacity:1" fill="#0e0e0e" d="M 534.5,408.5 C 528.5,408.5 522.5,408.5 516.5,408.5C 518.14,403.874 521.473,401.541 526.5,401.5C 531.309,401.549 533.976,403.882 534.5,408.5 Z"/></g>
<g><path style="opacity:1" fill="#2d2d2d" d="M 506.5,408.5 C 505.833,408.5 505.167,408.5 504.5,408.5C 503.572,403.578 500.572,401.244 495.5,401.5C 493.26,401.935 491.094,402.602 489,403.5C 481.857,399.574 476.69,401.24 473.5,408.5C 473.167,408.5 472.833,408.5 472.5,408.5C 474.828,399.674 480.161,397.341 488.5,401.5C 490.833,400.833 493.167,400.167 495.5,399.5C 501.286,399.956 504.952,402.956 506.5,408.5 Z"/></g>
<g><path style="opacity:1" fill="#0e0e0e" d="M 504.5,408.5 C 501.734,408.33 499.067,407.664 496.5,406.5C 495.5,406.667 494.5,406.833 493.5,407C 495.167,407.333 496.833,407.667 498.5,408C 490.173,408.5 481.84,408.666 473.5,408.5C 476.69,401.24 481.857,399.574 489,403.5C 491.094,402.602 493.26,401.935 495.5,401.5C 500.572,401.244 503.572,403.578 504.5,408.5 Z"/></g>
<g><path style="opacity:1" fill="#242424" d="M 315.5,414.5 C 314.404,417.032 313.071,419.365 311.5,421.5C 308.737,421.256 306.571,419.923 305,417.5C 303.366,408.968 306.866,404.968 315.5,405.5C 313.038,408.334 311.371,411.668 310.5,415.5C 312.216,415.371 313.883,415.038 315.5,414.5 Z"/></g>
<g><path style="opacity:1" fill="#3c3c3c" d="M 361.5,408.5 C 362.167,408.5 362.833,408.5 363.5,408.5C 373.833,408.5 384.167,408.5 394.5,408.5C 395.167,408.5 395.833,408.5 396.5,408.5C 400.846,408.666 405.179,408.499 409.5,408C 411.83,401.225 416.496,398.558 423.5,400C 426.807,404.679 425.474,407.345 419.5,408C 422.817,408.498 426.15,408.665 429.5,408.5C 430.167,408.5 430.833,408.5 431.5,408.5C 432.5,408.5 433.5,408.5 434.5,408.5C 435.167,408.5 435.833,408.5 436.5,408.5C 443.5,408.5 450.5,408.5 457.5,408.5C 457.337,406.143 457.503,403.81 458,401.5C 460.09,398.983 461.923,398.983 463.5,401.5C 464.468,403.607 464.802,405.941 464.5,408.5C 467.167,408.5 469.833,408.5 472.5,408.5C 472.833,408.5 473.167,408.5 473.5,408.5C 481.84,408.666 490.173,408.5 498.5,408C 496.833,407.667 495.167,407.333 493.5,407C 494.5,406.833 495.5,406.667 496.5,406.5C 499.067,407.664 501.734,408.33 504.5,408.5C 505.167,408.5 505.833,408.5 506.5,408.5C 509.167,408.5 511.833,408.5 514.5,408.5C 515.167,408.5 515.833,408.5 516.5,408.5C 522.5,408.5 528.5,408.5 534.5,408.5C 535.167,408.5 535.833,408.5 536.5,408.5C 557.5,408.5 578.5,408.5 599.5,408.5C 505.335,409.499 411.001,409.833 316.5,409.5C 317.568,408.566 318.901,408.232 320.5,408.5C 320.607,406.097 319.607,404.264 317.5,403C 308.009,399.953 302.343,403.453 300.5,413.5C 300.643,419.837 303.643,423.837 309.5,425.5C 308.488,426.872 307.488,428.205 306.5,429.5C 304.163,426.319 301.996,422.986 300,419.5C 299.023,414.266 299.69,409.266 302,404.5C 308.59,398.05 315.09,398.05 321.5,404.5C 322.246,405.736 322.579,407.07 322.5,408.5C 324.857,408.663 327.19,408.497 329.5,408C 331.894,403.43 335.561,400.597 340.5,399.5C 346.792,399.52 351.125,402.353 353.5,408C 356.146,408.497 358.813,408.664 361.5,408.5 Z"/></g>
<g><path style="opacity:1" fill="#0a0a0a" d="M 463.5,401.5 C 463.5,403.833 463.5,406.167 463.5,408.5C 462.167,408.5 460.833,408.5 459.5,408.5C 459.5,406.167 459.5,403.833 459.5,401.5C 460.833,401.5 462.167,401.5 463.5,401.5 Z"/></g>
<g><path style="opacity:1" fill="#070707" d="M 415.5,401.5 C 418.167,401.5 420.833,401.5 423.5,401.5C 423.5,402.833 423.5,404.167 423.5,405.5C 419.844,405.497 416.511,406.497 413.5,408.5C 412.833,408.167 412.167,407.833 411.5,407.5C 412.467,405.21 413.8,403.21 415.5,401.5 Z"/></g>
<g><path style="opacity:1" fill="#0f0f0f" d="M 337.5,401.5 C 343.624,400.231 348.291,402.231 351.5,407.5C 344.858,408.664 338.192,408.831 331.5,408C 333.027,405.31 335.027,403.143 337.5,401.5 Z"/></g>
<g><path style="opacity:1" fill="#2b2b2b" d="M 396.5,408.5 C 395.833,408.5 395.167,408.5 394.5,408.5C 391.34,401.206 386.173,399.539 379,403.5C 374.12,400.645 369.454,400.979 365,404.5C 364.209,405.745 363.709,407.078 363.5,408.5C 362.833,408.5 362.167,408.5 361.5,408.5C 365.059,399.592 370.892,397.592 379,402.5C 387.037,397.759 392.87,399.759 396.5,408.5 Z"/></g>
<g><path style="opacity:1" fill="#0f0f0f" d="M 394.5,408.5 C 384.167,408.5 373.833,408.5 363.5,408.5C 363.709,407.078 364.209,405.745 365,404.5C 369.454,400.979 374.12,400.645 379,403.5C 386.173,399.539 391.34,401.206 394.5,408.5 Z"/></g>
<g><path style="opacity:1" fill="#242424" d="M 248.5,413.5 C 252.844,420.184 258.844,424.517 266.5,426.5C 255.543,429.226 249.543,424.893 248.5,413.5 Z"/></g>
<g><path style="opacity:1" fill="#020202" d="M 479.5,520.5 C 385.839,518.502 291.839,517.836 197.5,518.5C 190.13,516.595 187.63,511.929 190,504.5C 190.833,502.333 192.333,500.833 194.5,500C 289.167,499.667 383.833,499.333 478.5,499C 484.892,476.613 499.725,464.446 523,462.5C 546.75,464.259 562.25,476.426 569.5,499C 580.597,499.044 591.597,499.711 602.5,501C 606.721,504.822 607.554,509.322 605,514.5C 603.786,516.049 602.286,517.215 600.5,518C 590.167,518.333 579.833,518.667 569.5,519C 562.262,541.56 546.762,553.726 523,555.5C 506.305,553.99 493.305,546.323 484,532.5C 482.002,528.67 480.502,524.67 479.5,520.5 Z"/></g>
<g><path style="opacity:1" fill="#fcfcfc" d="M 516.5,482.5 C 531.513,480.421 542.346,486.088 549,499.5C 553.26,516.815 547.093,528.648 530.5,535C 514.32,537.329 503.487,530.829 498,515.5C 495.854,499.788 502.021,488.788 516.5,482.5 Z"/></g>
<g><path style="opacity:1" fill="#cccccc" d="M 197.5,518.5 C 291.839,517.836 385.839,518.502 479.5,520.5C 385.402,519.836 291.402,519.169 197.5,518.5 Z"/></g>
</svg>
