<svg version="1.2" xmlns="http://www.w3.org/2000/svg" viewBox="0 0 2606 2322" width="2606" height="2322">
	<title>logo-svg</title>
	<style>
		.s0 { fill: #b4b4b4 } 
		.s1 { fill: #c7c7c7 } 
		.s2 { fill: #ffc179 } 
		.s3 { fill: #ffffff } 
		.s4 { fill: #c90303 } 
		.s5 { fill: #858585 } 
		.s6 { fill: #848484 } 
		.s7 { fill: #ff0000 } 
		.s8 { fill: #000000 } 
		.s9 { fill: #1b1b1b } 
	</style>
	<path class="s0" d="m1672.5 552l-42.5-33-22 21 44 177.5 16.5-19.5 15.5-15.5 21.5-22.5 13.5-19 15.5-16.5 20-21.5-6.5-7.5z"/>
	<path class="s0" d="m1672.5 552l-42.5-33-22 21 44 177.5 16.5-19.5 15.5-15.5 21.5-22.5 13.5-19 15.5-16.5 20-21.5-6.5-7.5z"/>
	<path class="s1" d="m1672.5 552l-42.5-33-22 21 44 177.5 16.5-19.5 15.5-15.5 21.5-22.5 13.5-19 15.5-16.5 20-21.5-6.5-7.5z"/>
	<path class="s0" d="m623 1871l-113-99-493.6 539.3 105.8-33.9 83.5-35.4 90.8-49.7 87.2-60.5 57.1-65.7 62.2-68.7 55.5-59.5z"/>
	<path class="s0" d="m623 1871l-113-99-493.6 539.3 105.8-33.9 83.5-35.4 90.8-49.7 87.2-60.5 57.1-65.7 62.2-68.7 55.5-59.5z"/>
	<path class="s0" d="m623 1871l-113-99-493.6 539.3 105.8-33.9 83.5-35.4 90.8-49.7 87.2-60.5 57.1-65.7 62.2-68.7 55.5-59.5z"/>
	<path class="s2" d="m2300.5 324c-42.9 0-77.5-32.4-77.5-72.5 0-40.1 34.6-72.5 77.5-72.5 42.9 0 77.5 32.4 77.5 72.5 0 40.1-34.6 72.5-77.5 72.5z"/>
	<path class="s2" d="m1213.5 1997c-42.9 0-77.5-32.4-77.5-72.5 0-40.1 34.6-72.5 77.5-72.5 42.9 0 77.5 32.4 77.5 72.5 0 40.1-34.6 72.5-77.5 72.5z"/>
	<path class="s2" d="m731.5 1997c-42.9 0-77.5-32.4-77.5-72.5 0-40.1 34.6-72.5 77.5-72.5 42.9 0 77.5 32.4 77.5 72.5 0 40.1-34.6 72.5-77.5 72.5z"/>
	<path class="s2" d="m238.5 1406c-42.9 0-77.5-32.4-77.5-72.5 0-40.1 34.6-72.5 77.5-72.5 42.9 0 77.5 32.4 77.5 72.5 0 40.1-34.6 72.5-77.5 72.5z"/>
	<path class="s2" d="m1694.5 1404c-42.9 0-77.5-32.4-77.5-72.5 0-40.1 34.6-72.5 77.5-72.5 42.9 0 77.5 32.4 77.5 72.5 0 40.1-34.6 72.5-77.5 72.5z"/>
	<path class="s2" d="m189.5 1281c-42.9 0-77.5-32.4-77.5-72.5 0-40.1 34.6-72.5 77.5-72.5 42.9 0 77.5 32.4 77.5 72.5 0 40.1-34.6 72.5-77.5 72.5z"/>
	<path class="s2" d="m1754.5 1279c-42.9 0-77.5-32.4-77.5-72.5 0-40.1 34.6-72.5 77.5-72.5 42.9 0 77.5 32.4 77.5 72.5 0 40.1-34.6 72.5-77.5 72.5z"/>
	<path class="s3" d="m1663.1 1169.2c0 389.4-301.6 798-691 798-389.3 0-682.5-346.1-682.5-735.5v-283.5c-0.4-221.1 98.8-583.2 177-632.5 54.2-34.1 144.5 8.6 218.5 78 54.1 67.3 90.8 148.7 151 182.5 35.5 20 87.5-12.1 139.4 0 50.3 0 101.8 19.7 146.6-13l109.3-139.2c7.9-11 15.7-21.3 23.7-30.3 63.6-71.7 126.4-100.8 182-78 133.5 54.7 226 409.3 226 853.5z"/>
	<path fill-rule="evenodd" class="s4" d="m2102.3 0c15.8 0.3 25.4 2.1 38.9 7.4 28.5 11 58.2 35 73 58.7 2.7 4.5 4.5 6.2 8.6 8.8 11.4 7 21.5 16.4 30.8 28.6 5.2 6.8 15.5 23.7 15.5 25.4 0 1.1 2.3 2.1 6.1 2.7 4.7 0.7 11.9 4.7 15.3 8.4 1.8 1.9 5.1 7.2 7.5 11.8 2.7 5.4 8 8.9 13.9 9.5h0.5c18.2 1.8 33.1 6.4 47.9 15 19.9 11.6 34.5 28.1 42 47.8 10.1 26.6 5.5 57.9-11.9 80.6-2 2.6-2.7 6.1-1.8 9.3l0.8 3.1c7.7 28.2 11.1 56.3 11.1 89.9 0 43.6-5.9 83.8-19.4 132-8.5 30.3-18.4 57.3-35.3 97.1-43 100.7-37.8 215.3 14.7 324.5l0.7 1.3c2.3 4.8 6.4 8.5 11.3 10.3 30.1 11.3 51.4 36.1 55.3 64.5 0.4 3.3 0.9 6.2 1.1 6.3 0.5 0.4 30.2 4.9 40.9 6.1 21.4 2.7 44.7 4.2 79.4 5.4 10.9 0.4 21.1 3.2 30.2 8.6 19.3 11.2 27.7 29.2 26.4 56.6-1.4 28.7-14.2 52.5-40.7 75.9-11.1 9.8-13.2 11.3-19.9 14.2-9.8 4.2-17.1 5.7-26.9 5.7-19.5 0.1-33.7-6.1-47.8-20.7-22.6-23.5-55.6-50.8-85.8-70.8l-0.8-0.5c-4.2-2.8-9.4-3.6-14.2-2.1-4.5 1.3-7.6 5.5-7.5 10.2v11c0.2 24.8 3.6 56.7 8.7 79.9 5.3 24.5-6.9 47.1-31.4 57.9-6.3 2.8-17.8 5.7-28.7 7.3-13.4 2.1-34.7 1.2-47.9-1.8-32.7-7.4-62.8-24.9-72.2-42-4.8-8.7-6.3-14.1-6.3-23.6 0-14.2 3.7-22.2 17.2-37.2 20.9-23 41.6-51.5 57.5-79l2.6-4.5c1.4-2.4 1.2-5.5-0.5-7.7-4.3-5.4-9.4-14.8-11.9-21.9-4.8-13.4-5.2-29.5-1.2-43.4 1.3-4.6 0.9-9.5-1.3-13.7l-0.5-1c-28.1-55.4-47.6-119.9-54.4-180.3-9.4-82.3 2.7-162.1 36.1-239.6 19.4-44.8 31.1-81.1 38.4-119.6 8.4-44.2 8.6-88.5 0.4-122.7-1.2-4.8-2.3-8.9-2.3-8.9-0.2-0.2-3-1.3-6.4-2.7-9.3-3.6-22.8-11.9-30.4-18.5-15.3-13.3-26.1-31.3-29.7-49.5-1.6-8.4-1.6-24.5 0-32.9 2.7-13.3 10.1-28.3 19.5-39.2 3-3.5 3.6-8.5 1.5-12.6l-1.2-2.5c-4.3-8.7-4.7-9.8-4.7-15.6-0.1-7.1 1.1-10.4 5.3-15.8 2.6-3.4 2.8-4.1 2-6-0.8-2-0.9-1.9-3.7 3.7-7.5 15.1-21.5 32.4-36 44.5-7.6 6.5-10.3 7.5-17.1 7.2-4.7-0.3-6.1-0.7-9.9-3.3-3.2-2.2-6.3-1.6-9 1.2-10.8 11.6-42.7 46.2-80 86.8-45.9 49.9-99.5 108.4-119.3 129.9-19.7 21.4-46.5 50.6-59.5 64.9l-15.1 16.4c-4.1 4.5-2.5 11.9 3.2 14.2 18.6 7.8 25.8 13.4 32.4 25.1 6.4 11.3 6.9 23.5 1.5 37.7-10.8 28.1-35.1 51.7-58.1 56.5-7.1 1.5-19 1.5-25.8 0.1-5.4-1.1-19.7-6.3-35.2-12.6-7.4-3.1-8.8-3.4-9.8-2.5-4.5 4.2-117.3 131.5-117.6 132.7-0.1 0.9 1.5 13.3 3.7 27.5 8.5 55.6 15.1 115.8 18.3 165.6l0.4 5.9c0.4 7.4 3.5 14.3 8.5 19.6 28.9 30 49.7 66.3 63.5 110.5 2.5 8.2 4.5 12.7 6.5 15.5 2 2.6 3.8 6.7 5.7 13.1q0.4 1.3 0.8 2.5c1.4 4.7 4.6 7.8 9.4 8.8 39.5 8.4 70.2 36.7 78.3 72 5.4 23.8-0.3 49.2-16 69.9-10.5 14-29.1 27.3-47.2 33.8l-4.1 1.5c-2.9 1-4.4 4.1-3.5 7 5.4 18.4 3.9 39.7-4 57.1-1.9 4.1-1.5 8.9 1 12.7l3.5 5.2c21.3 31.9 37.4 63 50.5 97.7 13 34.2 20.2 63.9 25.4 103.7 1.9 15.3 2.2 72.8 0.4 88.7-10.3 90-39.3 157.6-93.5 217.3-12.4 13.6-40.6 38.3-56.4 49.3l-4.8 3.4c-4.9 3.5-8.5 8.6-10 14.4-7.8 30-18.7 64.8-22.4 71.2-3.5 6-10 13.5-14.8 16.9-2.1 1.5-4.1 3.7-4.4 4.9-1.6 6.4-4.2 12.6-7.4 17.1-2.3 3.2-3.5 7.1-3.5 11.1v3.2c0.1 28.9 3.8 66.8 8.9 91.7 3.4 16.4 2.3 27.6-3.9 38.8-9.2 16.6-26.3 26.3-53.9 30.7-10.7 1.7-30 1.7-41.1-0.1-18.1-2.8-36.4-9.5-54.2-19.8-17.1-9.9-25.3-18.4-30.1-31.5-2.3-6.1-2.6-7.8-2.5-16.1 0.1-15.7 2.9-21.2 21.1-41.5 17.7-19.8 33.5-41.5 51.2-70.6l5-8.1c1.6-2.5 2.1-5.6 1.5-8.5-2-8.9 0.4-19.4 6.1-27.3 2.1-3 2.3-4 1.7-6.6-0.3-1.7-0.6-5.5-0.6-8.4 0-2.9-2.5-5.1-5.4-4.8h-0.1c-9.9 1.1-40.2 0.6-52.3-0.7-28.9-3.2-53.8-10-79-21.4-40.5-18.4-73.4-47.3-96-84.3-2.3-3.7-7.3-4.8-11-2.4l-4.2 2.7c-2.6 1.8-5.1 3.5-7.1 4.8-2.9 2.1-3.8 5-1.8 7.9 4 5.9 8.6 16.9 10.1 24 2 8.9 1.9 23.5-0.2 32.2-2.1 8.9-6.6 18.8-11.9 25.9-2.2 3-4.1 5.8-4.1 6.2 0 1 18.5 22.5 28.1 32.6 11.4 12.2 19.7 20.2 33.3 32.5 17.4 15.8 22.3 24.2 23.1 39.6 0.7 13.8-2.9 23.9-12.8 35.5-17.3 20.3-43 34.6-72.7 40.2-18.4 3.5-42.9 4-55 1.2-18.5-4.4-34.8-17.9-40.7-33.9-2.7-7.3-2.8-9.8-1.7-45.4 0.8-23.7 0.1-36.4-2.8-61.5l-1.2-10.2c-0.2-1.7-1.3-3.1-2.9-3.7-6.1-1.8-17-7.1-23.4-11.4-11.5-7.5-20.2-16.7-26.6-27.8-1.5-2.8-3-5.2-3.1-5.4-0.1 0-6.1 1.6-13.3 3.8-53.9 16.5-100.2 24-147.7 24-47.9 0-93.4-7.4-149-24.3-2.5-0.8-4.9-1.6-6.9-2.1-3.3-1-6 0.2-7.7 3.2-9.6 16.8-28.2 32.2-46.6 38.5-3.3 1.2-6.3 2.5-6.4 2.9-0.2 0.4-1.2 7.6-2.2 15.9-2.3 19.4-3.3 60.2-1.8 78 1.4 15.9 0.3 22.1-5.7 32.7-7 12.4-19.3 21.5-35.2 26.1-6.7 2-8.2 2-23.4 2.1-17.5 0-25.2-0.8-39.3-3.9-29.3-6.7-54-21.8-69.9-42.8-7.1-9.2-9.2-15.1-9.7-26.8-0.5-11.2 0.7-16.3 6.1-25.8 3.2-5.5 5.7-8.3 16.1-17.8 21.2-19.5 39.4-38.4 55.1-57.2l2.8-3.3c2.7-3.2 2.8-7.8 0.4-11.2-17.8-25-18.8-56.8-2.6-82.1 1.6-2.7 3-5.1 3-5.3 0-0.3-1.8-1.5-4-2.9-4-2.4-4.2-2.4-5.7-1-0.8 0.8-35.3 39.4-76.8 85.9-108.7 121.9-110 123.3-116.1 129.3-3.2 3.2-3.4 8.2-0.5 11.6l1.6 2c3.8 4.4 9.3 10.7 12.4 13.9 6.7 7.1 12 15.6 14.1 22.4 2.4 7.8 2 20.4-0.7 28-5.1 13.7-13.4 22.6-30.3 32.3-17.4 10.1-36.5 17.1-54.2 19.9-11.2 1.8-30.5 1.8-41.5 0-17.8-2.8-31.4-8-41.6-15.9-2.5-1.9-5.8-2.1-8.5-0.6l-10.9 6.2c-82.6 47.5-162.7 77.4-247.2 92.3-22 3.9-25.1 4.1-30.1 1.9-2.9-1.2-5.1-2.8-6.8-5.3-2.3-3.2-2.6-4.1-2.3-8.4 0.2-3.5 0.9-5.5 2.5-7.3 1.1-1.4 26.5-29.9 56.3-63.4 29.8-33.4 64.4-72 76.8-85.9 12.3-13.9 24.5-27.4 27-30.2 2.5-2.8 24.2-27 48.1-53.8 24-26.9 45.4-51 47.8-53.5 2.6-2.9 3.5-7 2.4-10.8l-3.9-12.8c-3.2-10.4-7.4-25.2-9.5-32.9l-0.1-0.4c-2.2-8.9-7.6-16.6-15-21.9-31.3-21.9-55.6-45.2-77.8-74.4-43.1-56.9-66.5-120.5-73.7-200.6-1.4-15.1-1.4-54 0-69.3 5.6-61.7 22.7-118 53.2-174.2 6.3-11.7 19.7-33.3 26.7-43.2l0.2-0.3c2.7-3.8 3.2-8.8 1.4-13.1-5.7-13.3-6.9-18.9-6.8-34 0-11.6 0.3-14.6 2-20.7 1.2-4 1.7-7.5 1.4-7.8-0.5-0.3-2.8-1.3-5.2-2-15.2-4.8-32.1-15.2-42.7-26.3-35.8-37-33.7-91.3 4.6-125.4 14.3-12.9 31.2-21.2 50.2-25.3 4.8-1 8-4.1 9.4-8.8q0.3-0.8 0.5-1.6c2.6-8.9 3.8-11.6 7-15.5 1-1.3 3.2-6.6 4.8-12 13.1-43.8 36.3-84.5 64.5-112.9 8.2-8.2 7.1-3.7 9.3-35.7 12.6-179.9 54.3-371.1 107.8-493.6 25.1-57.6 53.2-100.4 82-125.5 14.3-12.4 33.1-22.5 48.4-25.8 48.2-10.5 98.1 5.3 153.3 48.5 55 43.1 116.5 120 170.3 213.1 6.7 11.7 12.4 21.4 12.4 21.5 0.1 0 5.1-0.7 11-1.8 72.9-12.7 176.3-12.7 250.6 0q0.7 0.2 1.3 0.3c6.6 1.1 11.6-1.5 15-7.3 1.8-3.3 4.1-7.3 6.6-11.5 49.1-85.7 105.6-158.4 158.3-203.7 25.3-21.9 47.7-36.6 71.7-47.2 14.8-6.6 24.1-9.6 38.1-12.5 9.3-1.9 12.2-2.1 26.3-2.1 12.3-0.1 17.5 0.2 23.2 1.3 21.3 4.1 35.9 11.3 53.9 26.5 11.3 9.5 20.5 19.5 31.3 33.9 17.3 23 31.7 48.1 47.3 82.4l4.1 9c0.8 1.7 3.3 1.3 3.6-0.5 0.6-3.5 1.8-8.4 2.9-10.9 5.2-12.2 23.3-29.9 43.7-42.7 15.1-9.4 25.3-12.5 39.7-11.8 16.3 0.9 28.5 6.6 40.5 19.2 3.8 4 7.2 7.3 7.5 7.3 0.4 0 9.4-9.4 20-21 21.7-23.6 61.4-66.8 85.9-93.6 43.1-46.8 143.6-156.2 160-174 6.3-6.9 11.8-13 15-16.7 2.1-2.3 1.7-4.3-0.8-6.3-6.9-5.5-8.3-11-4.8-17.7 2.7-5.2 11.7-16.4 20.7-25.4 21.7-22.2 49.1-37.1 75.9-41.3 2.5-0.4 10.6-0.6 18.1-0.5zm-0.9 29.4c-11.9-0.3-16.5 0.4-26.3 4-11.7 4.2-22.9 11.1-34.5 21.4-7.5 6.5-15.7 15.1-15 15.7 1.7 1.4 11.8 8.2 12.3 8.2 0.3 0 2.6-2.2 5.1-4.9 9.2-9.9 25.7-22.4 37.4-28.3 6.1-3 18.5-7.4 24.1-8.5 2.5-0.5 8.6-1.4 13.7-1.9l1.5-0.2c1.7-0.2 1.9-2.6 0.2-3.1-6.2-1.7-9.2-2.1-18.5-2.4zm-78.6 77.2c-0.2 0-4.9 4.9-10.5 11-13.7 14.9-46.7 50.7-78.3 85.3-32.6 35.4-65.2 71-94.8 103.1-12.4 13.6-29.7 32.4-38.3 41.7-8.6 9.4-22 24-29.9 32.6-7.8 8.5-19.1 20.8-25.1 27.3l-5.8 6.3c-2.8 3.1-2.6 7.8 0.5 10.5 3.1 2.7 5.9 4.8 6.3 4.6 0.7-0.4 6.8-7 20.4-22 15.2-16.6 26.5-28.7 26.8-28.4 0.2 0.2 3.7 11 7.6 24.2 4.4 14.2 17.5 24 32.4 24.1h3.6l9.2 0.1c9.7 0 16.7-9.3 14-18.6-3-10.4-6.2-21.3-7.2-24.3-1-3.2-4-5.4-7.4-5.5l-22.9-0.4c-6 0-11.6-0.1-16.2-0.2-8.3-0.2-9.9-3.7-4.3-9.8q0.5-0.5 0.9-1c5.2-5.5 12.9-13.9 17.1-18.4 4.1-4.5 15.4-16.9 25.1-27.4 9.7-10.5 18.4-20 19.4-21.2 0.9-1.1 4.3-4.8 7.5-8.2 3.3-3.4 13.3-14.3 22.3-24.2 9-9.9 20.5-22.4 25.5-27.8 8.2-8.9 22.3-24.2 25.2-27.4 0.6-0.6 8.3-9 17.1-18.6 33.7-36.6 71.4-78.1 71.4-78.8 0-0.4-2.6-2.5-5.7-4.6-3.1-2.3-5.7-4-5.9-4zm244.6 44.9c-3.2 0-27.6 9.7-29.4 11.7-2.1 2.2-2 4.4 0.7 9.9l0.3 0.6c1.1 2.2 3.8 3 5.9 1.8 5.7-3.5 17.5-8.4 25.6-10.6l2.5-0.6c2.5-0.7 3.7-3.4 2.6-5.7-1.3-2.4-3-5-4.1-5.8-1-0.7-2.8-1.3-4.1-1.3zm-241.6 8.9l-19.3-0.3c-4.5-0.1-7.8 4.2-6.4 8.6 10.2 33.4 12.1 39.4 12.7 39.9 0.7 0.7 56.9 1.2 56.9 0.6 0-1.2-14.4-47.4-14.9-47.8-0.3-0.3-13.4-0.7-29-1zm268.4 25.6c-19.6 2.5-36.1 9.7-48.1 20.9-13.2 12.4-19.9 26.2-20.9 42.9-0.7 13.3 3 27.6 9.6 37.1 0.8 1.1 2.6 0.9 3.1-0.4l0.9-1.9c3.2-7.6 10.5-19.8 16.7-27.8 14.4-19 32.6-32.7 54.2-40.8 12.1-4.5 31.1-7.9 43.6-8h0.3c2 0 2.8-2.6 1.3-3.8-9.6-7.9-21.3-13.4-34.6-16.4-6.5-1.5-20.9-2.5-26.1-1.8zm-364.8 47.7c0 0.6 6.3 21.6 10.5 35.5 2.5 8 8.2 12.3 16.6 12.5 4.6 0.1 10.1 0.2 15.9 0.3 20.7 0.4 28.4 0.3 28.4-0.3 0-0.9-10.3-36.2-12.7-44-0.8-2.4-3-4-5.5-4.1l-12.4-0.3c-26-0.9-40.8-0.7-40.8 0.4zm416.7-0.4c-4.1 0.3-4.3 0.6-2.9 3.7 3.3 7.7 2.8 20.3-1 23-2.3 1.7-6.8 1.8-9.5 0.2-1-0.7-5.1-5.1-9-9.9-4-4.8-7.8-8.6-8.4-8.6-2.2 0.3-10.7 5.1-17.3 10-14.9 10.9-26.8 27.6-35.2 49.1-3.8 9.8-4 9.5 5.6 13.6 51.4 21.9 110.7-10.9 110.9-61.3 0-6.4-2-17.8-3.3-18.9-0.9-0.8-24-1.5-29.9-0.9zm-462.8 72.2h-16.3c-2.7 0-4.6 2.7-3.8 5.2 0.9 3 4.1 13.5 7.1 23.5 3 10 5.5 18.6 5.7 19.1 0.3 0.8 4.6 1 17.4 1 9.3 0 22.3 0.2 28.7 0.4 6.4 0.2 11.7 0.2 11.7-0.1 0-0.4-3.5-12.4-9.9-33.3l-2.3-7.8c-1.3-4.2-5-7.2-9.3-7.5-3.9-0.2-17-0.5-29-0.5zm-1382.5 10.5c-16.3 5.8-36 23-52.9 46.1-77 105.3-140.4 350.2-155.1 599.6-2.7 47.1-3.6 129.5-1.8 172.3 2 46 10.6 122.4 12.8 141.9q0.6 4.7 1.9 9.3l5.7 20.4c2.6 9.2 7.4 17.7 14.1 24.6 22.3 22.9 76.7 76.8 111.3 95.1 3.8 2 14.7 7.2 24.3 11.5 9.6 4.3 19.8 9 22.7 10.4 2.9 1.4 8.5 4 12.4 5.8 63.8 30 98.4 54.1 127.7 88.9 6.5 7.7 19.2 24.3 19.2 25.1 0 0.3-2.5-0.8-5.5-2.3-7-3.6-26.2-11.6-39.6-16.6-36.4-13.3-69.2-22.7-136.2-39.3-45.3-11.2-77.4-22.8-100.3-36.2-5.4-3.1-10-5.6-10.2-5.5-1.1 1.1 29.4 71.4 35.9 82.7 1.9 3.1 1.6 3.1 38 12.7 69.9 18.7 107.6 33.7 138.5 55.2 7.2 5.1 37.4 30.3 36.8 30.8-0.1 0.1-3.8-0.8-8.2-2.1-24.8-7.1-69-15-108.5-19.2-18.3-2-56.3-5.4-56.6-5.1-0.1 0 4.8 7.9 11 17.5 72.3 111 164.2 197.2 271.5 254.7 63.7 34.1 142.4 61.2 203.1 70 23.9 3.5 31.2 3.9 60.2 3.9 23.8 0 30-0.3 42.8-1.8 31.1-3.7 62-10.5 97.4-21.5 81.5-25.4 154.6-63.8 222.9-117.1 13.5-10.5 40.7-34.2 52.7-45.8 44.6-43 84.4-91.6 119.1-145.5 2.8-4.3 5.3-8.2 6.9-10.8 1.5-2.5 0.8-3.7-2.1-3.5-9.7 0.8-33.7 3-48.7 4.6-43.7 4.6-91.1 13.1-115.4 20.4-1.3 0.4-2.2-1.2-1.2-2.1l2.9-2.7c6.7-6.6 22-19 31.2-25.4 29.7-21 67.1-35.7 144.3-56.3 11.2-3 22.5-6.1 25.1-6.9 3.1-1 5.7-3.1 7.1-6l3.7-7.8c9.8-20 31.5-70.9 31.5-73.6 0-0.3-0.7 0-1.5 0.7-0.8 0.7-5.2 3.4-9.7 6-23.9 13.9-56.9 25.4-110.1 38.3-56.3 13.7-98.2 26.2-134.1 39.9-12.1 4.6-28.2 11.6-33.3 14.5-4.6 2.5-4.2 1.8 4.7-10 38.3-49.9 71.2-72.6 172.4-118.3 10.7-4.8 24.4-11.5 30.5-14.8 40-21.8 79.6-56.3 113.6-99.2 10.2-13 8.9-9.4 12.9-35.4 7.6-49.2 12.4-102.7 14.7-162.2 1.2-29.8 0.6-117.3-0.9-144.8-5.7-103.3-16.3-189.6-34.5-281.7-41.9-211.8-112.9-365.3-177.7-384.4-13.7-4.1-33.6-4.3-48.9-0.6-23.7 5.8-49.5 19.2-74.3 38.6-10.8 8.5-31.8 27.5-41.9 37.7-42.7 43.7-87.9 105.2-125.3 170.7-5.1 8.9-9.1 16.4-8.9 16.9 0.2 0.5 3.8 2.6 8.1 5 10.7 5.6 20.1 11.9 26.9 18 6.8 6.1 8.8 8.8 7.5 10.7-1.5 2.1-4.1 1.9-12.5-0.6-10-3.1-25.2-6.5-41.5-8.9-7.2-1.2-17.2-2.9-22.3-3.9-37.9-7.8-73.7-11.2-123-11.8-59.2-0.8-107 3.2-150.9 12.5-2.9 0.6-11.2 2.1-18.5 3.2-16.6 2.5-28.2 5-40.7 8.6-9.9 2.8-12.3 2.9-13.3 0.7-0.7-1.7 1-4.4 6.5-9.7 5.6-5.4 15.4-12.1 27.6-18.6 4.9-2.6 8.8-5 8.8-5.1 0-0.9-21.8-38.4-28.2-48.7-34-54.4-69.5-100.9-105.5-138.1-13.2-13.6-41-37.8-53.7-46.7-25.4-17.7-47.2-27.7-69.2-31.6-15.7-2.8-33.7-1.7-46.2 2.7zm1804.8 30.6c-5.1 0-5.8 0.1-5.3 1.3 0.2 0.8 1.2 6.3 2.2 12.2 11.2 69.6-3 148.9-43.6 242.7-19.8 46-31 89.6-35.4 138.9-1.7 19.5-1.2 65.6 0.9 84.1 6.1 52.3 18.6 98.3 40.8 149.6 2.7 6.3 5.3 11.9 6 12.6 0.8 1.1 1.4 0.9 4.3-1.7 2-1.9 2.6-4.7 1.6-7.2l-2.4-5.8c-21.3-51.1-33.5-99.3-39.2-154-1.6-15-2.1-51.6-0.9-68.2 3.7-55.7 15-101.4 38.9-157.5 22.9-53.8 35.2-95.8 41.5-142.6 2.4-17.2 3.3-53.5 1.8-70.1-1-10.6-3.9-29.8-5.1-33-0.3-1.1-1.4-1.3-6.1-1.3zm-652.8 54.5c-11.7 4.8-32.1 21.2-39 31.3-1.9 2.8-2.4 4.5-2.4 8.6-0.1 5.8 1.5 8.9 11.5 21.5 23.3 29.6 55.1 58.2 91.7 82.2 11.6 7.7 22.5 14.3 22.5 13.8 0-0.2-4.1-3.3-9-6.9-31.1-22.6-56.7-47.1-77.6-73.9-9.1-11.8-11.7-16.5-13.1-23.4-1.9-8.9 1-17.4 9.1-26.8 6.9-7.9 11.7-12 27.8-24.1 0.2-0.2-1.7-1.2-4.4-2.2-6.1-2.5-11.3-2.5-17.1-0.1zm-56.5 79.4c-4.3-5.3-7.5-9-7.1-8.1 1.3 3.2 9.3 24.9 11.1 30.4 1.1 3.2 2 5.6 2.2 5.4 1.4-1.3 8.4-9.5 8.4-9.9 0-0.3-1.5-2.2-3.5-4.3-1.8-2.1-6.8-8.1-11.1-13.5zm37.4 41.1c-1.4 0-20.2 22-19.7 23.1 0.8 2.5 12.7 44.9 14.5 52.1 1.1 4.2 2.3 7.4 2.7 7.2 0.4-0.2 9.2-9.9 19.5-21.5 10.3-11.5 20.1-22.5 21.7-24.2 1.5-1.7 1.2-4.3-0.6-5.6l-3.4-2.6c-3.7-2.7-13-10.3-20.5-16.7-7.6-6.5-14-11.8-14.2-11.8zm69.3 52.4c-0.5-0.3-2.9 1.8-5.7 5-2.7 3.1-16.5 18.9-30.9 35.2l-22.6 25.7c-2.2 2.5-3.1 5.9-2.4 9.2 0.6 2.9 3.2 15 5.7 26.9 2.4 11.9 4.9 23.9 5.5 26.7 0.5 2.1 3.1 2.8 4.6 1.2l1.4-1.6c2.8-3 21.7-24.2 42.3-47.2 20.5-23 39.9-44.6 42.9-48 3-3.4 5.6-6.4 5.6-6.7 0-0.3-4.8-3-10.5-6-5.8-3-16.1-8.7-22.8-12.7-6.7-3.9-12.6-7.3-13.1-7.7zm592.6 436.2c-6.5 5.7-10.8 11.4-14 19.1-3.3 7.7-3.8 21.4-1.2 30 6.7 21.6 27.9 36.7 53.5 38.1 22.8 1.1 44.5-10 54.7-27.8 8.7-15.6 8.8-31.1 0.3-46.3-3-5.4-5.1-7.9-11.2-13.2-8.3-7.3-16.4-11.4-26.2-13.5-20.9-4.4-41 0.5-55.9 13.6zm-2087.5 90.9c-1.7-0.4-4.7 0.7-6.1 2.1-1 1.2-3.6 8.4-3.6 10.3 0 0.5 2.5 1.1 6 1.4 7.3 0.6 17.6 2.9 26 5.8l2.1 0.8c2.3 0.8 5-0.5 5.8-2.8 3.3-9.4 2.2-10.4-15.6-14.5-7.3-1.6-13.9-3-14.6-3.1zm1513.6 3c-18.3 4.3-19.1 5.1-15.5 16 0.5 1.6 2.1 2.4 3.6 1.9l5.5-1.8c8.6-2.9 21.8-5.6 27.3-5.6 1.8 0 3.3-0.4 3.3-0.8 0-2.2-3-9.8-4.3-10.9-2.6-2.4-5.6-2.2-19.9 1.2zm568.5 12.1c-0.5 0-2.1 2.1-3.6 4.8-6.6 11.5-26.8 41.6-33 49-1 1.2-2.3 2.8-2.6 3.5-1.1 1.7 0.9-0.2 8.1-7.8 11.5-12.3 38.2-44.3 38.2-45.9 0-0.2-1.4-1.1-3.2-2-1.7-0.9-3.4-1.6-3.9-1.6zm-2152 41.7c-6.4 5.3-13.9 14-10.5 12.2 0.3-0.2 5.4-0.8 11.3-1.3 21.4-1.7 43.8 2 62.9 10.4 22.5 10 42.7 27.3 59 50.8 1.6 2.3 1.9 2.5 2.4 1.2 0.4-0.7 0-9.1-0.7-18.6-0.9-9.3-1.8-21.2-2.1-26.4-0.3-6.4-1-10.3-2.2-12.6-3.2-6.6-13.8-16.9-23.1-22.5-5.9-3.5-17.6-8.2-24.2-9.7-25.9-5.9-53.5 0.4-72.8 16.5zm1602.4-18c-11.8 2-25.3 7-33.9 12.7-6.2 4-14.6 11.9-18.9 17.6-2.3 3.1-3.6 6.8-3.8 10.6l-0.3 4.8c-0.4 5.9-1.3 18.2-2.1 27.4-0.9 9.1-1.4 17.1-1.2 17.9 0.4 1.4 2 2 2 0.7 0-1.3 10.8-15.1 16.7-21.3 29-30.3 65.1-44.5 105.6-41.5 6.2 0.5 11.5 1 11.9 1.3 2.6 1.4-2.4-4.8-8.4-10.4-8.3-7.7-23.1-15.3-35.4-18.4-5.2-1.2-27.4-2.2-32.2-1.4zm-1592.9 58.6c0-2.7-2.2-4.9-4.9-4.8-7.2 0.1-26.4 3.5-28 4.9-0.4 0.3-0.6 4.4-0.6 9.2 0.1 10.2 2.3 18.5 7.4 28 15.7 29.4 52.7 44.7 88.9 36.8 8.8-2 23.3-8.3 28.9-12.7 2.6-2 3.3-5.5 1.7-8.3l-1.4-2.4c-7.1-12.2-14.5-21.2-25-30.5-10.5-9.3-19.7-15.1-29.9-18.8-10-3.7-9.1-4.1-15.2 6.7-6.5 11.3-8.2 13.3-12.4 13.3-4.4 0-6.1-1.1-7.9-5.2-1.3-2.8-1.6-5.8-1.6-12.4zm1652.3-4.9c-1.9 0-3.5 1.6-3.5 3.5v4.8c0.1 8.9-1 13.3-4.1 16.3-2.3 2.2-7.9 2.4-10.2 0.3-0.9-0.8-4.3-6-7.6-11.7-6.7-11.6-5.2-11-16.9-6.2-17 6.9-31.6 18.4-44 34.8-5 6.5-13.6 19.8-13.7 21 0 1.1 12.8 8.7 19.4 11.5 11.9 5 19.6 6.5 33.5 6.5 9.6 0 13.4-0.3 19-1.7 34.4-8.2 58.1-35 57.9-65.4 0-4.7-0.3-8.7-0.5-8.8-0.7-0.6-10-2.6-17.7-3.7-4.3-0.6-9.5-1.2-11.5-1.2zm-1529.5 87c-1-6.1-4.4-7.6-9.4-3.9q0 0.1-0.1 0.1c-8.5 6.5-17.8 11.7-27.5 15.4-1.3 0.5-1 2.4 0.5 2.4h9.7c12 0 18.5 0.4 22.8 1.3l4 0.8c1 0.2 1.9-0.5 1.9-1.6 0-1.1-0.8-6.8-1.7-12.7q-0.1-0.9-0.2-1.8zm1404.5-9.6c-0.2 0-2 12-3.1 19.7-0.5 3.9 1.7 6.1 5.5 5.3 4.5-1 10.7-1.4 23.1-1.4 13.6 0 16.4-0.1 14.1-0.8-9.5-2.9-22.8-10.1-33-17.9-3.5-2.7-6.5-4.9-6.6-4.9zm-1468.7 28.1c-1.3 0-5.7 0.3-9.8 0.3-8.4 0.4-8.2 0.2-10.1 6.2-0.7 2.2-0.4 2.2 4.2 0.1 2.1-0.9 6.9-2.8 10.8-4.2 3.9-1.4 6.1-2.4 4.9-2.4zm1532 0.2c-0.4-0.1-0.6 0.5-0.2 0.7l1.1 0.3c2.4 0.9 7.6 2.8 11.3 4.3 1.3 0.5 2.5 1 3.5 1.4 2.5 0.9 3.7-0.2 2.7-2.7-0.8-2.2-2.9-3.6-5.3-3.6h-2.8c-3.8 0-8.4-0.2-10.3-0.4zm-1496.8 20.4c0 2.7-3.7 23-4.4 24.1-1.2 2-3.7 3.1-7 3.1-5.1 0-10.9-7.5-13.8-18l-0.2-0.6c-0.7-2.5-3.3-3.8-5.8-3-9.2 3.2-25.2 11.6-25.2 13.3 0 2 3.7 11.1 6.8 16.6 3.4 6.3 11.7 15.4 18.8 20.7 15.3 11.6 38.6 18 57.5 15.9 6.9-0.7 19.6-3.4 21.6-4.5 0.7-0.4 0.1-4-2-13-1.6-6.8-4.6-20.7-6.6-31-2-10.1-4.1-18.7-4.6-19-1.9-1-14.1-3.6-20.5-4.5-7.5-0.9-14.6-1-14.6-0.1zm1433.8 2.4c-3.7 1-7.2 2-7.9 2.3-0.7 0.4-2.3 6.8-4.2 16.4-2.6 13.7-8.2 39.2-9.7 44.5-0.4 1.6 0.1 1.9 6.7 3.7 19.2 5.4 41.9 3.5 59.6-5 16.4-7.8 29.1-20.5 35.6-35.5 4.4-10.2 4.4-10.2-1-13.4-6.8-3.8-15.4-8-20.7-9.8l-2.6-0.9c-1.1-0.4-2.3 0.3-2.6 1.5-2.5 9.6-5.6 15.4-9.8 18.8-4.9 3.7-10.7 2.5-12.5-2.7-0.8-2.1-3.6-19.3-3.6-22 0-1.9-15-0.8-27.3 2.1zm-1354.6 159.8c-0.8-0.7-10 47.7-13.4 70.5-8.6 57.4-11.7 103.7-10.8 161.9 1.1 72.4 9 137 25 203.5 2.1 8.9 3.9 16.5 3.9 16.9 0 1.7 2.1 0.2 6.4-4.7 3-3.4 4.2-7.9 3.1-12.3l-2.6-11.2c-23.9-104-30.2-211-18.8-319.6 2.6-24.4 7.6-58.6 11.9-80.6l0.1-1c1.1-5.2 0.5-10.7-1.5-15.6-1.7-4.2-3.2-7.7-3.3-7.8zm1303.8 5.2c-0.7-2.7-2.2-3-3.4-0.4q-0.6 1.5-1.3 3.3c-1.9 4.9-2.4 10.2-1.4 15.4l1.1 6.4c29 156.1 19.2 321-27.8 467.7-4.1 12.7-4.8 16.3-4.1 20.6 0.5 3.5 0.7 3.6 5.3 5.4 2.5 1 5 1.8 5.5 1.8 0.4 0 0.9-2.3 1.2-5.2 0.3-2.9 2.5-11.6 5-19.5 48.9-154.5 56.4-324.4 21.6-488.2-0.7-2.7-1.2-5.3-1.7-7.3zm-1397.3 25.8c-0.6-0.5-5 12.6-8.6 25.6-7.1 25.2-10.5 48.6-11.2 76.3-0.5 20.5 0.3 34.8 3.1 54.5 0.2 1.3 2 1.2 2.1-0.1v-1c0.4-6.6 1.1-21.4 1.6-32.9 1.8-37.4 6.3-81.9 11.9-114.3 0.8-4.3 1.2-7.9 1.1-8.1zm1489.5 0c0 0.3 1.1 8.3 2.6 17.7 6.5 42.5 11.5 99.6 11.5 133 0 21.1 1.3 18.7 4.6-8.5 1.4-11.9 1.4-52.1 0-64.3-2.7-23-7.7-46.1-14.5-67-3.3-9.9-4.2-12.4-4.2-10.9zm-1363.1 43.4c-0.7-1.4-2.8-1.1-3.1 0.5l-0.3 1.9c-6.6 44.9-9.4 92.4-8.7 145.5 0.7 55.1 4.6 97.9 13.4 147.7 1.7 9.4 3.1 17.5 3.1 17.7 0 0.7 7.1 3.3 14.9 5.4l3 0.9c2.2 0.6 4.5-0.1 6-1.7 1.3-1.5 15-16.8 30.4-34.1 15.4-17.3 38-42.5 50.2-56 12.1-13.7 22.6-25.4 23.2-26.1 0.9-1.1 0.2-2.4-5-8.2-24.6-28-54.1-67.7-77.6-104.8-10-15.6-33.9-57.5-41.5-72.8-3.1-6.2-6.7-13.3-8-15.9zm1240.1 3c-1-6.5-1.3-7.4-2-5.7-42.3 87.1-97 165.9-159.8 229.9-14.6 14.9-13.8 12.3-8 27.6 11.1 29.2 29.1 49.7 53.7 60.7 15.9 7.1 28.9 9.7 48.9 9.7 18.4-0.1 34.5-2.8 52.6-9l0.8-0.2c3.6-1.2 6.3-4.3 7-8 10.3-57.8 14.7-101.6 15.7-158.1 0.7-43.4-1.2-81.5-6-123.7-1-8.6-2.3-19-2.9-23.2zm-1085.4 221.2c-0.1 0-35.5 39.5-89.4 99.9-14.2 15.9-27.9 31.2-30.5 34-2.5 2.8-22.7 25.4-45 50.4-42.2 47.3-61 68.3-111.6 125-31.9 35.6-112.5 125.9-159.5 178.5-2.9 3.3-5.7 6.3-7.9 8.9-4.1 4.6-2.9 6.6 3.1 5.2q0.1-0.1 0.3-0.1c110.8-26.5 218.8-82.1 317.6-163.7 30.1-24.8 34.1-29 134.8-141.7 41.6-46.6 77.2-86.7 89.2-100.5 3-3.3 2.7-6.7-0.8-9.4-1.4-1-3-2.2-4.7-3.4-5.5-4-14.7-11-20.7-15.8-2.9-2.2-5.6-4.3-7.5-5.8-2.4-1.8-4.6-1.4-6.6 0.8-11.1 11.8-48.9 50.6-62.4 63.9-13.6 13.4-37.8 36.5-39.8 37.9-5 3.7 48.2-65.4 79.9-103.7l0.9-1.2c5.8-6.9 5.1-17.1-1.6-23.2-6.6-6-17.7-16.5-24.7-23.5-7.1-6.9-12.9-12.5-13.1-12.5zm168.7 130.8c-0.8 0-5.1 8.3-6.7 12.8-8.4 24 4.7 50.3 30.5 61.2 25.4 10.7 55.7 3.9 72.8-16.4 3.6-4.1 6.7-9.3 6-9.8-0.1-0.1-3.9-1.6-8.3-3.2-23.2-8.9-60.7-26.3-83.5-38.8-5.8-3.1-10.7-5.8-10.8-5.8zm583.6 3.3c-2.6 1.4-5.8 3.1-9.3 4.9-8.2 4.5-20.8 11-28 14.4-13.6 6.5-45.1 20-53.8 23.1-3.2 1.2-5.1 2.3-5.1 3 0 0.7 1.8 3.8 4.1 6.7 12.1 15.9 31.2 24.4 52.7 23.4 24.5-1.1 44.5-14.7 52.3-35.8 1.9-4.9 2.3-7.8 2.4-14.3 0.1-9.4-1.1-14.2-5.5-22.7-2.1-4.1-5.7-4.9-9.8-2.7zm-547.2 108.2l0.4 13c0.5 16 2.5 42.2 3 39.7 0.1-0.6 0.6-8.8 1.2-18 0.5-9.3 1.5-21.4 2.2-27.1 0.2-2.4 0.5-4.6 0.6-6.4 0.3-2.5-1.1-4.2-3.6-4.6-2.1-0.3-3.9 1.4-3.8 3.4zm517.1 0.1c0-2.8-2.4-3.7-5.2-3.4-2.9 0.3-2.9 0.4-2.3 3.6 1 7 2.3 21.7 3.1 36 0.5 8.2 1 15.1 1.2 15.3 0.7 0.7 3.2-37 3.3-50.3q-0.1-0.6-0.1-1.2zm344.9-0.8c-1.9 0-5.2 6.6-5.2 10.4 0 2.7 0.2 2.9 5.8 5.1 13.6 5.3 35.9 11 47.6 12l2 0.2c2 0.2 3.9-0.8 4.9-2.6 0.9-1.5 1.7-4.4 2.1-6.3 0.4-3 0.3-3.3-1.6-3.7-1.1-0.3-4.8-1-8.3-1.7-10-1.9-25.9-6.2-36.7-10-5.5-1.9-10.3-3.4-10.6-3.4zm1.9 38.7c-0.8 0-3.8 4.1-8 11-7.2 12-20.7 32.1-28.3 42.4-5.5 7.3-7 9.7-5 7.7 14.7-15.1 47.5-54.3 48.5-58.1 0.2-0.5-1.1-1.3-2.8-1.9-1.7-0.6-3.7-1.1-4.4-1.1z"/>
	<path class="s5" d="m526.6 385.2c-8.7 1.6-14.2 6.1-19.6 16.2-41.4 77.4-72.1 161.7-94.6 260-11.6 50.5-25.6 136.7-23.4 143.5 1.5 4.8 6.2 7.8 12.1 7.8 4.5 0 6.4-1.3 16.1-10.9 10.2-10 46.9-42.2 58.2-51.2 56.9-45.1 114.3-79.8 176.3-107.1 15.6-6.8 30.8-12.8 54.4-21.4 6-2.1 9.3-5.5 9.3-9.6 0-5.6-24.6-51.6-43.2-80.9-32.3-50.7-65-89.6-105.1-124.9-16.1-14.1-21-17.9-24.8-19.4-5.3-2.2-11.2-2.9-15.7-2.1z"/>
	<path class="s6" d="m1406.3 385.8c-5.8 1.3-8.3 2.9-20.8 13.3-57.7 47.9-111.9 119.4-151.8 200.6-7.9 15.8-6.9 18.6 9 24.1 76.1 26.6 152 68.9 221.7 123.4 15.3 12 48.1 40.6 60.8 53.1 11.1 10.9 13.3 12.4 18 12.4 7.4 0 12.1-4.3 12.1-11.1 0-10.4-7.9-63.1-15.1-99.6-21.2-109.8-58-217.8-100.9-296.2-7.2-13.4-9.3-15.9-15.7-18.5-6-2.6-11.4-3-17.3-1.5z"/>
	<path class="s7" d="m955.9 786c-8.6 1.5-14 3.2-22.7 7-21.5 9.5-37.6 27.1-44 48.3-1.8 5.9-2 8.9-2.5 29.4-1.6 98.2 33 249.3 77.9 340.1 3.8 7.6 7.1 13.8 7.5 13.8 0.6-0.1 2.8-4.3 10.7-20.8 37-76.9 66.9-197.4 74-298.2 1.4-19.1 1.2-47.7-0.4-56.7-2.9-17.1-11.1-30.9-25.7-43.3-10.7-9.1-22.7-15.1-36.9-18.5-9.2-2.1-29-2.8-37.9-1.1z"/>
	<path class="s7" d="m738.8 843.3c-22.6 4.3-38.6 18.9-42.5 38.7-1.7 8.6-0.8 14.9 3.8 28.5 14.9 43.9 51.9 109.9 87.3 155.6 15.2 19.6 37.9 44.7 39.2 43.3 1.1-1 2.6-15.3 3.7-35.3 3.2-58.3-9-144.7-27.5-194.2-4.5-12-7.7-16.7-15.8-23.9-13-11.3-31.1-16.1-48.2-12.7z"/>
	<path class="s7" d="m1194.9 842.6c-18.9 2.4-36.1 14.7-43.1 31.1-12.2 28.3-23.1 79.4-28.4 133.3-1.9 18.7-2.6 58.5-1.4 74.3 1.3 16.5 2.9 28.8 3.8 28.5 1.3-0.4 15-14.8 23.7-25 38.2-44.6 80.6-115.4 99.5-166.1 5.7-15.4 7.2-21.2 7.2-28.7 0-9-1.2-13.7-5.4-21.4-9.7-17.9-33.1-28.7-55.9-26z"/>
	<path fill-rule="evenodd" class="s8" d="m1599 1107.4c-1.8 13.8-9.1 34.9-17.7 51.5-13.3 25.9-36.3 56.4-61.5 81.4-2.9 2.9-6.6 7.6-8.2 10.4-3.9 7.4-16.4 27-23.2 36.6-14.7 21-34.5 44.8-36.7 44.3-0.5-0.2-0.7 0-0.3 0.3 0.3 0.3-0.6 1.9-2.2 3.7-3.9 4.3-28 25.8-28 24.9 0-0.4-1 0.3-2.2 1.6-1.2 1.2-2.2 1.9-2.2 1.6 0-0.8-5.6 4.3-8.3 7.6-20.3 24.3-26.5 29.5-45.8 38.2-44.5 20.2-105.5 31.1-175.4 31.1h-4.2c-9.7 0-19.2 2.4-27.7 7-15.4 8.2-34 19.2-42.4 25.1-3.4 2.3-6.3 4.1-6.5 4-0.6-0.6 2.5-16.2 5-25.7 6.8-24.8 20.8-55.5 36.2-78.9 7.7-11.7 17.7-25.2 18.6-25.2 0.7 0 0.6-1.1 0.9-1.7 1-1.6 3.7-5 7-8.6 1.2-1.4 3.3-3.8 4.4-5.3 2.1-2.9 3.5-3.8 3.5-2.3 0 1.1-2.1 1.4-1.4 2.2q0.1 0.1 0.3 0.3c1.1 1.2 1.1 5.4 0 4.8-0.5-0.2-0.5-1.2-0.3-2.2 0.3-1 0.2-2-0.2-2.2-1.1-0.6-2.5 1-3.2 3.6-0.5 1.6-1.1 2-2.1 1.7-1-0.3-1.1-0.2-0.1 0.7 0.9 1.1 1.2 1.1 2.4 0.1 0.7-0.6 0.9-1.5 0.7-1.9-0.3-0.4-0.1-0.8 0.3-0.8 0.5 0 1 0.3 1 0.7 0 0.4 0.7 1.3 1.5 2.1 1.4 1.2 1.4 1.2-0.2 0.8-1.7-0.4-1.8-0.1-1.9 5.9-0.2 4.9-0.7 6.6-1.8 7.3-0.8 0.5-1.1 1.2-0.8 1.5 0.4 0.3 1 0.1 1.4-0.5 0.5-0.6 1.1-0.9 1.4-0.5 0.4 0.3-0.1 1.2-0.9 2-1 1-1.2 1.6-0.6 1.6 0.6 0 1.3-0.6 1.5-1.2 0.4-0.6 0.9-1.1 1.4-1.1 0.4 0 6.4-5 13.4-11.1 6.9-6 14.7-12.5 17.3-14.5 2.7-1.9 6.7-5 9-6.9 2.3-1.8 4.3-3.1 4.3-2.7 0 0.4-1.6 2-3.6 3.7-1.9 1.5-3.5 3.4-3.5 4 0 1-0.5 1.2-2.6 1.4-0.3 0-1.2 0.6-2 1.4-1.7 1.6-0.1 2.1 1.8 0.5 1.5-1.3 1.3 0.3-0.3 2.2q-1.2 1.4-1.3 0.4c0-0.5-0.4-0.7-1-0.4-0.7 0.4-0.7 0.6 0 1 1.4 0.8 0.2 6.4-1.3 5.9-0.7-0.2-1 0-0.6 0.8 0.2 0.7-0.1 2.1-0.7 3.2-1 1.6-1 2.1-0.1 2.3 0.6 0.3 1 1.6 1 3.4 0 1.7 0.5 3 1 3 0.6 0 0.7 0.6 0.3 1.4-1.2 2.4-1.3 6.5 0 5.8 0.5-0.4 1.7-0.7 2.5-0.7 1.6 0-0.5 2.3-8.4 9.4-4.8 4.4-6.2 7-5.7 10.6 0.8 5 4.7 7.6 18.1 12.6 11.9 4.5 21.2 6.1 34.2 6.2 12.1 0 22.6-0.7 24.4-1.6 1.5-0.8 8.6-1 9.2-0.2 0.9 1.4 1.8 0.6 1.6-1.3-0.1-1 0.1-1.7 0.6-1.4 0.4 0.2 0.6 0.7 0.3 1.1-0.3 0.4 0.1 0.7 0.8 0.7 0.8 0 1.4-0.4 1.4-0.7 0-0.5 0.5-0.8 1-0.8 0.4 0 0.7 0.3 0.4 0.7-0.5 0.6 4 1.4 9.7 1.8 2.3 0.2 12.3-0.9 16.3-1.7 1.7-0.4 6.2-1.3 10.1-2 10.8-1.9 25.9-6.3 28.5-8.3 1.4-1 3.6-2.1 7.1-3.8 1-0.5 1.9-1.4 1.9-2 0-0.5 0.8-1 1.8-1 1 0 1.8-0.3 1.8-0.6 0-0.4 1.5-1.2 3.2-2 3.2-1.3 7.3-4.3 7.3-5.2 0-0.3 1.6-2 3.6-3.9 1.9-1.8 3.5-4.2 3.5-5.1 0-1.1 0.5-1.8 1.3-1.8 0.7 0 1.6-0.9 1.9-2.1 0.3-1.2 1.6-3.9 2.7-6.1 1.8-3.6 2-4.9 1.6-10.9-0.2-3.7-0.4-8.6-0.4-10.7 0-3.3-0.5-4.3-3.2-6.9-1.7-1.7-3.7-4.3-4.3-5.7-1.5-2.9-5.9-7.1-7.7-7.1-0.6 0-1.6-0.6-2.2-1.4-1.2-1.7-12.6-7.9-14.6-7.9-0.7 0-2.2-0.7-3.3-1.6-1.2-0.8-3.2-1.5-4.6-1.5-1.3 0-2.5-0.4-2.5-0.8 0-0.4-1-0.7-2.1-0.7-1.2 0-2.8-0.3-3.6-0.5-1.2-0.4-1.3-0.6-0.3-1.2 0.9-0.5 0.8-0.7-0.3-0.7-1.5 0-2-1.3-1.9-4.5 0.1-0.6-0.6-0.6-1.1-0.9-0.6-0.4-1.4-0.9-2.2-1.6-2.3-1.9-3.6-2.3-6.9-2.3-3.9 0.1-5.3 0.6-14.7 5.5-1.7 0.9-1.7 0.9-0.4-0.5 0.7-0.8-0.3-0.2-2.1 1.4-2.9 2.4-3.7 2.8-4.8 2-1.7-1.2-5.8-1.8-5-0.6 0.3 0.4-0.3 0.4-1.7-0.2-1.2-0.4-2.3-1.2-2.3-1.6 0-0.5-0.4-0.4-1.1 0.1-0.6 0.4-3.3 0.8-6 0.8-2.6 0-7 0.5-9.7 1.1-2.6 0.7-7.9 1.9-11.6 2.6-3.8 0.7-6.9 1.6-6.9 2 0 0.4-1 0.1-2.4-0.7-2.3-1.3-2.4-1.3-1.2 0 1.1 1.1 1 1.3-1.2 1.3-1.5 0-2.2-0.3-1.7-0.9 0.4-0.6-0.7-0.2-0.9 0.5 0 0.4 0 0.8 0.1 1.2 0.3 0.9 0 1.5-0.5 1.5-0.7 0-0.8-0.3-0.6-0.8 0.6-0.8-5.5 1.4-7.3 2.6-0.9 0.6-0.9 0.9-0.1 1.4 0.6 0.3 0.1 0.5-1.2 0.5-1.3-0.1-2.4-0.3-2.4-0.3 0-0.1 3.1-2.2 6.9-4.6 1.4-0.9 2.7-1.8 3.8-2.5 2.3-1.6 4.5-3.3 6.9-4.8 1.7-1 3.3-2.1 3.6-2.3 0.2-0.2 1.7-1.1 3.1-2 8.6-5.3 14.6-8.9 18.8-11.4 5-3 5.3-3.7 1-1.7-1.4 0.6-3.2 0.9-3.9 0.7-0.8-0.3-1.4-0.2-1.4 0.2 0 0.4-0.7 0.7-1.5 0.8-0.9 0.1-3.2 0.3-5.1 0.6-1.9 0.2-4.3 0.5-5.3 0.5-2.4 0.1-10.1 2.1-11.4 2.8-0.5 0.4-3.3 1.1-6.2 1.7-2.9 0.6-6.9 1.7-8.9 2.4-8.1 3.3-10.5 4.1-13.8 4.5-2.5 0.2-3.3 0.7-3 1.4 0.3 0.6 0.1 0.9-0.4 0.6-0.6-0.3-0.8-1.3-0.5-2.4 0.2-0.5-0.4-0.9-0.9-0.5l-0.8 0.7c-2.2 1.9-2.9 3.1-1.3 2.2 2.1-1.1 2.6 0.7 0.6 2.1-3 2-3.5 1.8-3-0.7 0.4-1.8 0.4-2-0.7-0.7-1.2 1.4-2.6 1.8-1.7 0.4 0.4-0.6 0.3-0.7-0.3-0.4-0.5 0.4-0.7 1.1-0.4 1.8 0.3 0.9 0.2 1.1-0.6 0.7-0.6-0.4-0.8-0.1-0.8 0.5 0.2 0.6-0.4 0.9-1.5 0.8-1.4-0.2-1.5-0.1-0.4 0.5 1 0.7 1 0.9-0.3 1.3-0.8 0.2-1.2 0.9-0.8 1.3q0.3 0.7-0.6 0.3c-0.5-0.3-1.2 0-1.5 0.6-0.3 0.7-0.9 1-1.3 0.8-0.6-0.3-0.6 0.5-0.8 1.1-0.3 0.5-0.7 1.1-1.2 1.6-0.7 1.1-1.5 1.6-1.5 1.1 0-0.4 0.6-1.2 1.2-1.8 0.9-0.8 0.8-1-0.3-0.6-0.7 0.1-1.5 1.4-1.8 2.8-0.6 2.6-2.6 5.1-2.6 3.4 0-0.5 0.5-1.1 0.9-1.4 0.5-0.2 0.9-1.2 0.9-2.1 0-2.1 15.1-15.7 16.2-14.7 0.4 0.3 0.5 0 0.4-0.6-0.2-0.7 0.3-1.1 1.2-1.1 1.1 0.1 0.8-1.5 1.5-2.3q0.3-0.3 0.5-0.5c1.1-0.7 1.6-0.7 2.9 0.1 0.9 0.6 1.2 0.7 0.9 0.2-0.4-0.5-0.3-1.1 0.2-1.4 0.4-0.3 0.9-0.1 0.9 0.3 0 0.4 0.4 0.8 1 0.8 0.7 0 0.7-0.4-0.1-1.1-0.9-1-1.4-1-2.5-0.3-0.8 0.7-1.2 0.7-1 0.2 0.5-1.2 13-10.7 15.5-12 0.3-0.2 0.6 0 0.9-0.2 0.3-0.2 0.1-0.6 0.4-0.9 2.2-2.3 16.4-12.4 27.6-19.7 40.9-26.4 87-48.7 138.9-67.3 14.1-5.1 21.8-7.6 58.3-19.1 31.7-9.9 61.9-22.4 89-36.6 15.1-8 34.3-19.3 36.4-21.5 1.7-1.8 2-1.2 1.3 3.3zm-313.7 163.7c-2.5 0.2-4.4 0.9-4.4 1.6 0 0.9 0.3 0.9 3.2-0.5 1.4-0.6 1.9-1.1 1.2-1.1zm-42.2 4.1c-0.7 0.8-0.8 1.2-0.1 1.6 0.7 0.5 0.5-1.4 1.4-1.3q0.1 0 0.2 0c0.7 0.1 1-0.1 0.6-0.6-0.7-1-0.9-1-2.1 0.3zm-7.1 2.3c-0.7 0.8-0.8 1.3-0.1 1.7 0.6 0.3 1.1-0.2 1.2-0.8q0.1-0.3 0.2-0.6c0.3-1.7 0-1.7-1.3-0.3zm76.2 12.1c-0.7 0-1.1 0.4-0.8 0.8 0.5 0.7 2.2 0.4 2.2-0.5 0-0.1-0.6-0.3-1.4-0.3zm-46.7 2.8c-0.7-0.2-1.3-0.3-1.3-0.2 0 0.2 0.6 0.7 1.3 1.3 0.8 0.5 1.3 0.6 1.3 0.1 0-0.4-0.6-0.9-1.3-1.2zm-50.4 2.8c-0.2 0.2 0.1 0.5 0.3 0.3h0.1c1-0.9 1.9-1.6 1.9-1.8 0-0.6-0.7-0.1-2.3 1.5zm-6.5 40.6c0 0.6 0.4 0.9 0.9 0.6 0.5-0.3 0.7-0.8 0.4-1.2-0.8-1.1-1.3-0.8-1.3 0.6zm-35.5 4.9c-0.2-0.7-0.6-0.2-0.9 1.2-0.3 1.2-0.1 2.6 0.3 3.1 0.6 0.5 0.7 0.2 0.3-0.8-0.6-1.4-0.6-1.5 0.9-0.4 1.5 1.1 1.6 1.1 0.8-0.4-0.6-0.8-1.1-2.1-1.4-2.7zm254.7 4.7c-0.5 0.7 0.4 1.2 0.7 0.4q0 0 0-0.1c0.7-1.3 0.1-1.5-0.7-0.3zm3.5 1.5c-0.7 0-0.3 0.6 1.2 1.6 1.3 1 1.4 1 0.3-0.3-0.6-0.7-1.3-1.3-1.5-1.3zm0.4 2.6c-0.6-0.3-0.8-0.2-0.4 0.3 0.2 0.4 0 1-0.6 1.2-0.8 0.3 0.5 0.6 1.2 0.1q0.2-0.1 0.3-0.3c0.3-0.3 0-1-0.5-1.3zm-6.2 1.5c-0.9-0.1-1.5 0.2-1.2 0.5 0.3 0.4-0.5 1.6-1.8 2.7-2.3 2-2.8 3.8-1.4 4.6 0.5 0.3 0.6-0.1 0.4-0.9-0.3-0.9 0.2-1.4 1.5-1.5 1-0.1 1.6 0.2 1.2 0.7-0.3 0.6-0.2 0.6 0.5 0.3 0.5-0.3 0.8-0.9 0.5-1.3-0.4-0.4-0.1-0.7 0.4-0.7 0.6 0 0.7-0.4 0.4-0.9-0.5-0.6-0.2-0.7 0.8-0.4 0.3 0.1 0.7 0.1 1 0.1 0.7 0 1.4-1.1 0.7-1-2.2 0.3-3-0.2-2.2-1.1 0.7-0.8 0.6-1-0.8-1.1zm-213.7 8.8c-0.5 1-0.4 1.1 0.8 0.3 0.7-0.6 1.3-1.1 1.3-1.3 0-0.8-1.7-0.1-2.1 1zm207.7-0.9c-0.5-0.2-0.9 0.1-0.9 0.7 0 0.6-0.6 1.5-1.4 1.9-0.8 0.3-1.2 0.9-0.7 1.1 0.4 0.2 1.5-0.4 2.3-1.4 0.9-1.1 1.2-2 0.7-2.3z"/>
	<path class="s3" d="m1423.5 1354.3c-1.4 0.9-1.5 1.1-0.3 1.1 0.8 0 1.5-0.5 1.9-1.1 0.6-1.4 0.5-1.4-1.6 0z"/>
	<path fill-rule="evenodd" class="s8" d="m345.3 1103.8c0.3 0 2.7 1.5 5.5 3.4 13.3 8.8 36 21.1 55.8 30.1 23.1 10.6 46.9 19.5 76.3 28.4 53.6 16.4 98.6 34.3 138.6 55.2 21.1 11.1 56.8 33 61.8 37.8 0.5 0.5 0.6 1.5 1.2 1.3 1.1-0.2 10.9 6.7 16.9 12 1.3 1.1 2.6 2.1 3.4 2.7 0.7 0.5 1.7 0.4 2.1 1.2 0.6 1.4-3.7 1.2-4.7-0.2-0.7-1-0.9-1-0.9 0.1 0 1.9-1.1 1.8-2.5-0.1-0.8-1.2-2-1.6-4.8-1.6-2.1 0-6.3-0.4-9.5-0.8-3.1-0.3-10.6-0.7-16.5-0.8-6 0-10.6-0.3-10.5-0.6 0.2-0.2-1.4-0.6-3.6-0.7-2.5-0.1-3.7 0.1-3.3 0.6 0.3 0.5 0.8 0.6 1.3 0.4 0.3-0.2 0.9 0.1 1.1 0.6 0.3 0.6 2.6 2.3 5.2 3.8 6.7 4 18.7 12.2 17.9 12.3-0.5 0 0.1 0.4 1.3 0.8 1.1 0.4 1.8 0.9 1.5 1.2-0.8 0.7-5-1.4-4.4-2.2 0.2-0.3 0-0.6-0.5-0.6-0.5 0-0.9 0.3-0.9 0.6 0 0.4-4.6 0.7-10.2 0.8-7.1 0.1-10.1-0.1-10.1-0.7 0-0.7-0.4-0.7-1.2-0.1-0.6 0.5-4.5 0.9-8.7 1-2.6 0.1-4.7 0.2-6 0.4-0.9 0.1-1 1-1.8 1.4-0.5 0.4-0.6 0.9-0.3 1.4 0.3 0.5 0.2 0.6-0.4 0.3-0.5-0.3-0.7-1.1-0.4-1.9 0.5-1.1 0.3-1.1-0.7-0.4-1 0.7-1.6 0.6-2.8-0.1-0.8-0.5-1.2-1.3-0.8-1.6 0.3-0.4 0-0.4-0.6 0-0.6 0.3-1.8 0.1-2.6-0.5-4.2-3.2-11.6-6.1-15.5-6.1-6.3 0-9 2.5-10.7 9.9-0.7 3.3-2 7-2.7 8.2-0.7 1.1-0.9 1.9-0.4 1.7 0.5-0.2 0.9 0.2 0.9 1.1 0 1-0.6 1.6-1.8 1.6-1 0-2.2 0.7-2.8 1.5-0.6 0.9-1.5 1.6-1.9 1.6-1.1 0-6.8 4.9-6.8 5.9 0 0.4-0.6 1.3-1.3 1.8-0.7 0.6-1.3 1.7-1.3 2.5 0 0.9-0.7 1.7-1.7 1.9-2.4 0.6-4 4.7-3.8 9 0.3 2.8 0 3.7-0.9 3.7-1.5 0-2.7 7.3-1.5 9.3 1.7 3 6.3 13.7 6.5 15.1 0 0.8 1.7 3 3.7 4.8 1.9 1.7 4.5 4.5 5.6 5.8 1.2 1.5 3.8 3.5 6 4.5 2.1 1 4.3 2.7 4.7 3.6 0.4 1 1.4 1.8 2.1 1.8 0.8 0 3.2 1 5.3 2.3 2.1 1.2 4.3 2.3 4.7 2.3 0.4 0 1.3 0.5 1.8 1.1 0.7 0.6 2.7 1.3 4.5 1.6 1.9 0.3 4.3 1.2 5.3 1.9 1 0.8 4.3 1.9 7.4 2.3 3 0.6 7.2 1.5 9.3 2.1 3.2 0.9 4.1 0.9 4.6 0.2 0.6-0.8 0.8-0.8 0.9 0.1q0 0.1 0 0.2c0.1 1 0.4 2 1.3 1.6 0.7-0.2 1.2-0.9 0.9-1.4-0.3-0.7 0.3-0.9 1.5-0.6 1.6 0.3 1.7 0.2 0.6-0.5-0.8-0.5-0.9-0.8-0.3-0.8 0.6 0 1.4 0.4 1.6 0.7q0.2 0.2 0.3 0.3c0.8 0.5 1.7 0.1 1.1 0.7-2.6 2-1.7 2.6 3.5 2.6 3.2 0 4.7-0.3 4.1-0.7-0.7-0.5-0.4-0.5 0.6-0.2 0.9 0.2 2.7 0.7 3.9 0.9 1.4 0.3 2.9 1.1 3.6 1.8 0.8 0.8 1.4 0.9 1.6 0.4 0.4-1 7.2-0.6 8.4 0.4 0.4 0.2 5.9 0.2 12.4 0 14.7-0.7 26.9-3.3 39.1-8.4 10.9-4.6 13.2-6.6 13.2-11.6 0-2.3 0.3-3.7 0.9-3.5 0.9 0.4 6.6-4.5 6.6-5.7 0-0.3 0.7-1 1.7-1.5 0.8-0.5 1.8-1.7 2.1-2.7 1.2-4.3 4.1-10.3 5.2-10.6 0.9-0.3 1-0.1 0 0.8-0.9 1-0.8 1.4 0.2 2.2 1.2 0.8 1.3 0.8 0.8-0.3-1-2.3 1-1.2 5 2.9 7.4 7.5 11.6 11.2 12.5 11.1 0.5-0.1 1.2 0.4 1.3 1 0.4 1 0.3 1-0.5 0-0.5-0.6-1-0.9-1-0.5 0 0.3 1.1 1.8 2.4 3.2l0.8 0.9c0.9 0.9 2.4 1 3.3 0 0.9-1 1.2-1.7 0.7-1.9-1.3-0.4-1.3-4.3 0.1-5.4 0.6-0.5 1.5-0.6 2.5-0.2 1.9 1 3.3-0.4 1.8-1.7-0.7-0.7-1-0.7-1 0.1 0 0.6-0.3 0.7-0.9 0.5-0.4-0.3-0.8-0.9-0.8-1.3 0-0.4 0.4-0.5 0.8-0.3 0.6 0.3 0.9 0 0.9-0.7 0-1.4-1.5-2.3-2-1.1-0.2 0.6-0.4 0.1-0.3-1 0.1-0.8 1-1.1 1.5-0.5l0.1 0.1c0.9 0.9 2 2.8 2.7 4.2 0.6 1.4 1.4 2.5 1.8 2.5 0.4 0 0.5 0.4 0.2 0.8-0.4 0.4-1.1 0.5-1.6 0.3-0.6-0.3-0.7-0.2-0.4 0.1 0.5 0.4 1.4 0.8 2.1 0.8 1.5 0 4.6 4.7 13.6 20.5 14 24.7 24.2 51.8 29.1 76.9q0.3 1.9 0.6 3.6c0.7 3.9-1.1 5.2-4.4 2.9q-0.4-0.3-0.8-0.6c-8.7-6.1-25.2-16.1-41.2-24.7l-1.1-0.6c-8.8-4.7-18.6-7.2-28.6-7.2h-3.7c-70 0-130.9-10.8-176.1-31.1-16.5-7.5-25.9-14.8-38.7-30.3-7.4-9-10.5-11.9-21.3-19.9-25.7-19-60.3-60.6-84.5-101.8-6-10.2-8.7-13.8-14.9-20.2-35.3-35.7-59.7-72.6-70.8-106.8-2.8-8.5-5.9-21.8-5.9-25.3 0-0.8 0.1-1.4 0.4-1.4zm301.6 164.9c-0.1 0-0.3 0.3-0.3 0.8 0 0.4 0.4 0.8 1 0.8 0.4 0 0.6-0.4 0.3-0.8-0.2-0.5-0.7-0.8-1-0.8zm50.9 3.8c0 0.3 0.6 0.8 1.3 1.1 1.2 0.5 1.5-0.2 0.4-0.9-0.9-0.5-1.7-0.6-1.7-0.2zm5.6 2.4c-0.2 0-0.3 0.3-0.3 0.8 0 0.4 0.4 0.8 0.9 0.8 0.5 0 0.6-0.4 0.4-0.8-0.3-0.5-0.7-0.8-1-0.8zm84.1 93.5c-0.3-0.7-0.4-0.6-0.3 0.1 0.1 0.6 0.8 1.2 1.7 1.3 0.8 0.1 1.3-0.1 1-0.5-0.3-0.4-0.8-0.6-1.3-0.3-0.4 0.2-0.8 0-1.1-0.6zm-138.3 25.7c-0.8 0.5-0.8 0.8-0.2 0.8 0.5 0 1.3-0.4 1.6-0.8 0.7-0.9 0.3-0.9-1.4 0z"/>
	<path class="s3" d="m709.9 1279.6c0.6 0.6 1.3 0.8 1.5 0.6 0.3-0.3-0.1-0.7-1-1-1.3-0.4-1.3-0.3-0.5 0.4z"/>
	<path class="s3" d="m713.3 1281.8c-0.4 0.4-0.2 0.9 0.3 1.2 0.4 0.3 1 0.1 1.3-0.3 0.3-0.4 0.2-0.9-0.3-1.1-0.4-0.3-1-0.2-1.3 0.2z"/>
	<path class="s3" d="m637 1291.4c-0.7 0.8-0.6 1.1 0.2 1.1 0.7 0 1.2-0.5 1.2-1.1 0-0.6-0.1-1-0.2-1-0.2 0-0.7 0.4-1.2 1z"/>
	<path class="s3" d="m1221 1293.7c-1.2 1.4-1.6 2-0.9 1.5 1.4-1.1 3-1.3 2.2-0.3-0.2 0.4 0.1 0.7 0.9 0.7 0.7 0 0.9-0.4 0.5-1.3-0.5-0.7-0.5-1.7-0.4-2.2 0.6-1.5 0-1-2.3 1.6z"/>
	<path class="s3" d="m1308.1 1291.7c0.5 0.2 0.8 0.8 0.5 1.2-0.3 0.5-0.1 0.6 0.5 0.3 1.1-0.7 0.4-2-1.1-2-0.8 0-0.7 0.2 0.1 0.5z"/>
	<path class="s3" d="m1214.5 1299.3c-1.4 1.8-1.4 1.9-0.1 1.4 1.2-0.4 1.3-0.2 0.8 0.5-0.4 0.6-0.4 0.9 0.2 0.6 0.3-0.2 0.6-1.1 0.8-2 0.3-1.6-0.6-1.8-1.7-0.5z"/>
	<path class="s3" d="m1253.1 1300.5c0.3 0.3 0.9 0.7 1.5 0.7 0.4 0 0.8-0.4 0.8-0.7-0.1-0.5-0.7-0.8-1.5-0.8-0.7 0-1 0.3-0.8 0.8z"/>
	<path class="s3" d="m1206 1303c-1.1 1.6-1 1.6 0.5 0.4 1.1-1 0.3-1.6-0.5-0.4z"/>
	<path class="s3" d="m1201.6 1307q-2 1.8-1 2.3c0.6 0.4 0.8 0.1 0.8-0.5-0.2-0.6 0.4-0.9 1.4-0.8 1.5 0.2 1.6 0.1 0.5-0.5-1.2-0.8-0.6-1.2 1.1-0.9 0.5 0 0.6-0.3 0.2-0.7-0.7-1-0.7-1-3 1.1z"/>
	<path class="s3" d="m1243.8 1306.4c-1.2 1.3-1.1 1.3 0.3 0.3 1.5-1 1.9-1.6 1.2-1.6-0.2 0-0.9 0.6-1.5 1.3z"/>
	<path class="s3" d="m1196.3 1312.4c-1.6 1.4-2.4 2.6-1.7 2.5 2-0.3 3.5-1.4 3-2.1-0.4-0.4-0.2-0.7 0.2-0.7 0.6 0 1.1-0.6 1.4-1.2 0.7-1.6 0.4-1.5-2.9 1.5z"/>
	<path class="s3" d="m1191.7 1317.2c-0.5 0.5-0.6 1.4-0.2 1.9 0.4 0.7 0.2 0.8-0.8 0.5-0.7-0.3-1.9 0.1-2.4 0.7-0.6 0.6-0.8 1-0.4 1 0.5 0 0.2 0.5-0.6 1.1-0.8 0.5-1.8 1.6-2.4 2.5-0.7 1.4-0.7 1.6 0.9 1.5 1-0.1 2.2-0.8 2.7-1.6 0.7-1 0.6-1.2-0.1-0.8-1.1 0.6-1.3-0.5-0.3-1.4 0.4-0.3 0.6-1 0.6-1.5 0-0.5 0.7-0.9 1.4-0.9 0.7 0 1.4-0.3 1.5-0.7 0.2-1.3 2.3-1.9 3.8-1 1.1 0.8 1.1 0.8 0.2-0.3q-0.2-0.3-0.4-0.6c-0.5-0.6-0.4-1.4-1.2-1.4-0.7 0-1.7 0.4-2.3 1z"/>
	<path class="s3" d="m1225.8 1317.5c-0.3 0.4-0.2 0.8 0.4 0.8 0.4 0 1.1-0.4 1.4-0.8 0.2-0.5 0.1-0.8-0.4-0.8-0.4 0-1.1 0.3-1.4 0.8z"/>
	<path class="s3" d="m1179.8 1332.5c-0.4 0-0.8 0.4-1 0.8-0.1 0.2-0.2 0.5-0.2 0.7 0 0.5 0.4 0.4 1.1-0.1 0.3-0.3 0.5-0.6 0.6-0.9 0.1-0.2-0.1-0.6-0.5-0.5z"/>
	<path class="s3" d="m756 1349.9c0 0.5 0.3 1 0.9 1.3 0.5 0.2 0.6-0.1 0.3-0.7-0.6-1.4-1.2-1.7-1.2-0.6z"/>
	<path class="s3" d="m781 1351.9c0 0.7 0.3 1 0.8 0.7 0.4-0.2 0.5-0.7 0.2-1.1-0.8-1-1-0.9-1 0.4z"/>
	<path class="s3" d="m1217.7 1355c0 0.7 0.3 1 0.8 0.7 0.4-0.2 0.5-0.7 0.2-1.1-0.8-1-1-0.9-1 0.4z"/>
	<path class="s3" d="m782.9 1373.2c-0.3 0.4-0.2 0.8 0.4 0.8 0.4 0 1.1-0.4 1.4-0.8 0.2-0.4 0.1-0.8-0.4-0.8-0.4 0.1-1.1 0.4-1.4 0.8z"/>
	<path class="s3" d="m654.8 1392.3c-1.6 0.6-1.4 1.8 0.3 1.8 0.7 0 1-0.3 0.8-0.7-0.8-1.1 0.7-1.1 2 0.1 0.7 0.6 1 0.6 1 0.1 0-0.4-0.8-1.1-1.6-1.5-0.8-0.3-1.7-0.1-2.5 0.2z"/>
	<path class="s8" d="m647.7 1455.5c4.5 4.7 16 13.3 25.2 18.6 28 16.4 66.3 25.3 108.7 25.3 12.6 0 32.3-1.1 35.2-2 2.6-0.8-27.4-19.2-41-25.1-18.5-8-31.8-10.8-59.5-12.3-23.1-1.4-53.9-4.7-69.2-7.5-0.8-0.1-1.3 0.8-0.8 1.5z"/>
	<path class="s8" d="m1290.6 1453.4c-18 3-39.2 5.1-67 6.9-18.8 1.3-28.2 2.7-40.1 6.2-8.3 2.4-22.3 8.5-28.5 12.1-12.8 7.7-28.4 18.1-27.8 18.6 1.2 0.9 20.6 2.2 34.3 2.2 55.3 0 99.7-13.7 130.9-40.3q8.2-7 6.1-6.8c-0.7 0.1-4.2 0.5-7.9 1.1z"/>
	<path class="s8" d="m943.5 1546.4c-38.4 3-61.8 11.3-68.3 24.3-7.3 14.6 2 37.5 22.8 55.8 14.3 12.6 29.3 20.2 48.8 24.7 4.5 1 7.7 5 7.7 9.6v6.9c0 34 4.2 85.6 9.7 118.6 2.6 15.8 7.2 36.2 7.9 35.4 1-0.9 5.8-22.6 7.9-35.8 5.5-33.4 9.7-86.7 9.8-120.9v-9.8c0-1.4 1-2.6 2.5-2.9 30.7-5.7 58.9-24.3 72.3-48 6.5-11.4 8.4-23.3 5.1-31.9-3.1-8.1-13.4-15.1-28.7-19.5-8.6-2.4-25.5-5.2-37.7-6.2-9.8-0.7-51.4-1-59.8-0.3z"/>
	<path class="s9" d="m374.9 1687.6c0 28.7 0.9 53.4 3.1 79.3 1.4 16.8 5.3 51.2 6.2 54.6 0.2 0.8 1.3 1.1 1.8 0.4l0.2-0.1c11-12.4 45.8-51.3 51.3-57.3 4.1-4.6 4.3-11.4 0.4-16.2l-2.3-2.8c-17.2-21.2-38.1-49.7-53.4-73.4-2.2-3.3-7.3-1.8-7.3 2.2z"/>
	<path class="s9" d="m1561.1 1673.4c-28.4 43.4-60.9 84.6-96.5 122.1l-4.2 4.4c-2.3 2.5-2.9 6.1-1.6 9.1 6.7 15.8 19.2 29.2 33.3 36.1 15 7.2 37.1 8.9 57.6 4.4l2.2-0.4c2.3-0.5 4.1-2.4 4.5-4.7 5.4-31.9 9-63.5 11.3-98.4 1.2-17.9 2-75.8 1.1-80-0.2-1.2-1.9-1.5-2.5-0.4z"/>
</svg>