<?xml version="1.0" encoding="UTF-8"?>
<!DOCTYPE svg PUBLIC "-//W3C//DTD SVG 1.1//EN" "http://www.w3.org/Graphics/SVG/1.1/DTD/svg11.dtd">
<svg xmlns="http://www.w3.org/2000/svg" version="1.1" width="320px" height="320px" style="shape-rendering:geometricPrecision; text-rendering:geometricPrecision; image-rendering:optimizeQuality; fill-rule:evenodd; clip-rule:evenodd" xmlns:xlink="http://www.w3.org/1999/xlink">
<g><path style="opacity:0.994" fill="#323232" d="M 175.5,0.5 C 179.163,0.951784 182.83,1.45178 186.5,2C 181.718,5.38054 177.385,9.21387 173.5,13.5C 170.167,14.8333 167.833,17.1667 166.5,20.5C 157.533,29.0922 150.533,39.0922 145.5,50.5C 142.378,55.7563 140.045,61.423 138.5,67.5C 138.5,67.8333 138.5,68.1667 138.5,68.5C 137.076,70.5145 136.41,72.8478 136.5,75.5C 134.864,79.2095 134.198,83.2095 134.5,87.5C 133.167,96.1667 133.167,104.833 134.5,113.5C 134.5,113.833 134.5,114.167 134.5,114.5C 133.745,120.403 134.245,126.403 136,132.5C 136.383,133.056 136.883,133.389 137.5,133.5C 138.121,137.942 139.121,142.275 140.5,146.5C 140.415,149.649 141.415,152.316 143.5,154.5C 144.833,157.833 146.167,161.167 147.5,164.5C 148.833,167.493 150.833,169.827 153.5,171.5C 154.956,176.091 157.623,179.758 161.5,182.5C 163.719,188.255 167.386,192.922 172.5,196.5C 173.585,198.587 175.251,199.92 177.5,200.5C 177.833,200.5 178.167,200.5 178.5,200.5C 178.738,202.404 179.738,203.738 181.5,204.5C 216.141,230.605 254.475,237.438 296.5,225C 301.333,223.167 306.167,221.333 311,219.5C 311.5,219.833 312,220.167 312.5,220.5C 298.329,252.995 276.329,278.662 246.5,297.5C 244.847,297.66 243.514,298.326 242.5,299.5C 240.973,299.427 239.973,300.094 239.5,301.5C 238.508,301.328 237.842,301.662 237.5,302.5C 235.033,302.755 233.033,303.755 231.5,305.5C 229.315,305.704 227.315,306.37 225.5,307.5C 221.064,308.414 217.064,310.081 213.5,312.5C 211.708,312.366 210.042,312.699 208.5,313.5C 202.968,314.468 197.634,315.801 192.5,317.5C 191.833,317.5 191.167,317.5 190.5,317.5C 171.121,319.087 151.788,318.753 132.5,316.5C 130.485,315.076 128.152,314.41 125.5,314.5C 122.572,314.435 119.905,313.768 117.5,312.5C 114.916,310.528 111.916,309.528 108.5,309.5C 108.027,308.094 107.027,307.427 105.5,307.5C 84.9999,299.994 67.1666,288.327 52,272.5C 36.6547,256.487 24.8214,238.154 16.5,217.5C 15.7333,213.851 14.3999,210.518 12.5,207.5C 11.0143,201.221 9.68096,194.887 8.5,188.5C 8.19162,184.64 7.52495,180.974 6.5,177.5C 1.74241,110.184 27.4091,58.3507 83.5,22C 100.211,12.0399 118.211,5.53995 137.5,2.5C 150.119,1.0419 162.786,0.375235 175.5,0.5 Z"/></g>
<g><path style="opacity:0.643" fill="#6b6b6b" d="M 151.5,-0.5 C 159.5,-0.5 167.5,-0.5 175.5,-0.5C 175.5,-0.166667 175.5,0.166667 175.5,0.5C 162.786,0.375235 150.119,1.0419 137.5,2.5C 142.167,1.5 146.833,0.5 151.5,-0.5 Z"/></g>
<g><path style="opacity:0.2" fill="#b2b2b2" d="M 173.5,13.5 C 171.5,16.1667 169.167,18.5 166.5,20.5C 167.833,17.1667 170.167,14.8333 173.5,13.5 Z"/></g>
<g><path style="opacity:0.028" fill="#ececec" d="M 175.5,0.5 C 175.5,0.166667 175.5,-0.166667 175.5,-0.5C 179.833,-0.5 184.167,-0.5 188.5,-0.5C 189.507,1.56985 189.174,3.56985 187.5,5.5C 161.134,25.2348 144.468,51.2348 137.5,83.5C 136.612,80.9455 136.279,78.2788 136.5,75.5C 137.924,73.4855 138.59,71.1522 138.5,68.5C 138.5,68.1667 138.5,67.8333 138.5,67.5C 140.715,64.0781 142.715,60.4115 144.5,56.5C 145.156,54.5466 145.489,52.5466 145.5,50.5C 150.533,39.0922 157.533,29.0922 166.5,20.5C 169.167,18.5 171.5,16.1667 173.5,13.5C 177.385,9.21387 181.718,5.38054 186.5,2C 182.83,1.45178 179.163,0.951784 175.5,0.5 Z"/></g>
<g><path style="opacity:0.055" fill="#c2c2c2" d="M 145.5,50.5 C 145.489,52.5466 145.156,54.5466 144.5,56.5C 142.715,60.4115 140.715,64.0781 138.5,67.5C 140.045,61.423 142.378,55.7563 145.5,50.5 Z"/></g>
<g><path style="opacity:0.012" fill="#fdfdfd" d="M 194.5,70.5 C 196.467,70.2606 198.301,70.5939 200,71.5C 201.393,75.4871 202.393,79.4871 203,83.5C 202.107,84.7112 201.274,84.7112 200.5,83.5C 199.48,80.3952 198.313,77.3952 197,74.5C 196.421,80.3852 194.087,85.3852 190,89.5C 188.853,88.5419 187.853,88.8753 187,90.5C 186.667,90.1667 186.333,89.8333 186,89.5C 183.838,91.1986 181.672,92.032 179.5,92C 181.329,92.2735 182.829,93.1068 184,94.5C 185.131,93.3961 185.965,93.7295 186.5,95.5C 183.19,96.3486 179.856,96.182 176.5,95C 173.833,93 173.833,91 176.5,89C 180.029,87.5343 183.695,86.5343 187.5,86C 188.931,85.5348 190.097,84.7014 191,83.5C 192.283,79.1573 193.45,74.824 194.5,70.5 Z"/></g>
<g><path style="opacity:0.243" fill="#a7a7a7" d="M 138.5,68.5 C 138.59,71.1522 137.924,73.4855 136.5,75.5C 136.41,72.8478 137.076,70.5145 138.5,68.5 Z"/></g>
<g><path style="opacity:0.092" fill="#bababa" d="M 136.5,75.5 C 136.279,78.2788 136.612,80.9455 137.5,83.5C 136.022,84.4475 135.022,85.7809 134.5,87.5C 134.198,83.2095 134.864,79.2095 136.5,75.5 Z"/></g>
<g><path style="opacity:0.029" fill="#f2f2f2" d="M 137.5,83.5 C 136.749,93.5661 135.749,103.566 134.5,113.5C 133.167,104.833 133.167,96.1667 134.5,87.5C 135.022,85.7809 136.022,84.4475 137.5,83.5 Z"/></g>
<g><path style="opacity:0.03" fill="#ededed" d="M 132.5,-0.5 C 138.833,-0.5 145.167,-0.5 151.5,-0.5C 146.833,0.5 142.167,1.5 137.5,2.5C 118.211,5.53995 100.211,12.0399 83.5,22C 27.4091,58.3507 1.74241,110.184 6.5,177.5C 6.33537,180.518 6.50204,183.518 7,186.5C 7.27842,187.416 7.77842,188.082 8.5,188.5C 9.68096,194.887 11.0143,201.221 12.5,207.5C 12.2063,211.567 13.5397,214.9 16.5,217.5C 24.8214,238.154 36.6547,256.487 52,272.5C 67.1666,288.327 84.9999,299.994 105.5,307.5C 105.973,308.906 106.973,309.573 108.5,309.5C 111.215,311.072 114.215,312.072 117.5,312.5C 119.905,313.768 122.572,314.435 125.5,314.5C 127.515,315.924 129.848,316.59 132.5,316.5C 136.191,317.393 139.858,318.393 143.5,319.5C 139.5,319.5 135.5,319.5 131.5,319.5C 73.2372,304.56 33.0706,268.893 11,212.5C -10.0752,134.384 11.4248,71.2176 75.5,23C 93.4463,12.3041 112.446,4.47076 132.5,-0.5 Z"/></g>
<g><path style="opacity:0.141" fill="#e8e8e8" d="M 134.5,114.5 C 136.232,117.468 137.565,120.635 138.5,124C 137.633,127.105 137.299,130.272 137.5,133.5C 136.883,133.389 136.383,133.056 136,132.5C 134.245,126.403 133.745,120.403 134.5,114.5 Z"/></g>
<g><path style="opacity:0.365" fill="#c4c4c4" d="M 140.5,146.5 C 142.543,147.579 143.876,149.246 144.5,151.5C 143.596,152.209 143.263,153.209 143.5,154.5C 141.415,152.316 140.415,149.649 140.5,146.5 Z"/></g>
<g><path style="opacity:0.204" fill="#f0f0f0" d="M 144.5,151.5 C 145.458,151.953 146.292,152.619 147,153.5C 148.327,157.809 149.494,162.142 150.5,166.5C 149.778,165.449 148.778,164.782 147.5,164.5C 146.167,161.167 144.833,157.833 143.5,154.5C 143.263,153.209 143.596,152.209 144.5,151.5 Z"/></g>
<g><path style="opacity:0.018" fill="#aaaaaa" d="M 147.5,164.5 C 148.778,164.782 149.778,165.449 150.5,166.5C 152.047,167.768 153.047,169.435 153.5,171.5C 150.833,169.827 148.833,167.493 147.5,164.5 Z"/></g>
<g><path style="opacity:0.008" fill="#fefffe" d="M 276.5,176.5 C 277.496,176.414 278.329,176.748 279,177.5C 279.494,179.134 279.66,180.801 279.5,182.5C 278.5,182.5 277.5,182.5 276.5,182.5C 275.725,180.388 275.725,178.388 276.5,176.5 Z"/></g>
<g><path style="opacity:0.21" fill="#ababab" d="M 6.5,177.5 C 7.52495,180.974 8.19162,184.64 8.5,188.5C 7.77842,188.082 7.27842,187.416 7,186.5C 6.50204,183.518 6.33537,180.518 6.5,177.5 Z"/></g>
<g><path style="opacity:0.035" fill="#d9d9d9" d="M 161.5,182.5 C 162.885,183.614 164.385,184.614 166,185.5C 167.932,189.924 170.766,193.591 174.5,196.5C 173.833,196.5 173.167,196.5 172.5,196.5C 167.386,192.922 163.719,188.255 161.5,182.5 Z"/></g>
<g><path style="opacity:0.1" fill="#656565" d="M 172.5,196.5 C 173.167,196.5 173.833,196.5 174.5,196.5C 175.488,197.795 176.488,199.128 177.5,200.5C 175.251,199.92 173.585,198.587 172.5,196.5 Z"/></g>
<g><path style="opacity:0.039" fill="#959595" d="M 178.5,200.5 C 179.5,201.167 180.5,201.833 181.5,202.5C 181.5,203.167 181.5,203.833 181.5,204.5C 179.738,203.738 178.738,202.404 178.5,200.5 Z"/></g>
<g><path style="opacity:0.18" fill="#bfbfbf" d="M 12.5,207.5 C 14.3999,210.518 15.7333,213.851 16.5,217.5C 13.5397,214.9 12.2063,211.567 12.5,207.5 Z"/></g>
<g><path style="opacity:0.021" fill="#ebebeb" d="M 181.5,202.5 C 189.399,206.455 197.065,210.955 204.5,216C 228.805,226.923 254.138,230.257 280.5,226C 291.54,222.804 302.54,219.637 313.5,216.5C 313.666,220.514 313.499,224.514 313,228.5C 289.165,276.521 251.332,306.855 199.5,319.5C 193.5,319.5 187.5,319.5 181.5,319.5C 184.5,318.833 187.5,318.167 190.5,317.5C 191.167,317.5 191.833,317.5 192.5,317.5C 198.237,317.292 203.57,315.958 208.5,313.5C 210.042,312.699 211.708,312.366 213.5,312.5C 216.454,311.572 219.454,310.739 222.5,310C 223.942,309.623 224.942,308.79 225.5,307.5C 227.315,306.37 229.315,305.704 231.5,305.5C 233.967,305.245 235.967,304.245 237.5,302.5C 237.842,301.662 238.508,301.328 239.5,301.5C 241.027,301.573 242.027,300.906 242.5,299.5C 244.38,299.771 245.713,299.104 246.5,297.5C 276.329,278.662 298.329,252.995 312.5,220.5C 312,220.167 311.5,219.833 311,219.5C 306.167,221.333 301.333,223.167 296.5,225C 254.475,237.438 216.141,230.605 181.5,204.5C 181.5,203.833 181.5,203.167 181.5,202.5 Z"/></g>
<g><path style="opacity:0.247" fill="#989898" d="M 246.5,297.5 C 245.713,299.104 244.38,299.771 242.5,299.5C 243.514,298.326 244.847,297.66 246.5,297.5 Z"/></g>
<g><path style="opacity:0.2" fill="#9b9b9b" d="M 242.5,299.5 C 242.027,300.906 241.027,301.573 239.5,301.5C 239.973,300.094 240.973,299.427 242.5,299.5 Z"/></g>
<g><path style="opacity:0.208" fill="#ababab" d="M 237.5,302.5 C 235.967,304.245 233.967,305.245 231.5,305.5C 233.033,303.755 235.033,302.755 237.5,302.5 Z"/></g>
<g><path style="opacity:0.298" fill="#848484" d="M 105.5,307.5 C 107.027,307.427 108.027,308.094 108.5,309.5C 106.973,309.573 105.973,308.906 105.5,307.5 Z"/></g>
<g><path style="opacity:0.435" fill="#8a8a8a" d="M 108.5,309.5 C 111.916,309.528 114.916,310.528 117.5,312.5C 114.215,312.072 111.215,311.072 108.5,309.5 Z"/></g>
<g><path style="opacity:0.224" fill="#8f8f8f" d="M 225.5,307.5 C 224.942,308.79 223.942,309.623 222.5,310C 219.454,310.739 216.454,311.572 213.5,312.5C 217.064,310.081 221.064,308.414 225.5,307.5 Z"/></g>
<g><path style="opacity:0.349" fill="#939393" d="M 125.5,314.5 C 128.152,314.41 130.485,315.076 132.5,316.5C 129.848,316.59 127.515,315.924 125.5,314.5 Z"/></g>
<g><path style="opacity:0.216" fill="#a3a3a3" d="M 208.5,313.5 C 203.57,315.958 198.237,317.292 192.5,317.5C 197.634,315.801 202.968,314.468 208.5,313.5 Z"/></g>
<g><path style="opacity:0.538" fill="#7a7a7a" d="M 132.5,316.5 C 151.788,318.753 171.121,319.087 190.5,317.5C 187.5,318.167 184.5,318.833 181.5,319.5C 168.833,319.5 156.167,319.5 143.5,319.5C 139.858,318.393 136.191,317.393 132.5,316.5 Z"/></g>
</svg>
