<svg width="24" height="20" viewBox="0 0 24 20" fill="none" xmlns="http://www.w3.org/2000/svg">
<path d="M15.888 12.096C15.888 12.096 16.944 11.9808 17.424 11.6352C17.904 11.2896 18.384 10.7136 18.576 9.75359C18.672 9.21599 18.528 7.37279 18.336 6.87359C18.144 6.37439 17.376 5.64479 16.512 5.45279C15.648 5.26079 15.312 5.29919 15.312 5.29919H3.40796V15.36H6.62396V12.0192H12.72L15.456 15.36H18.912L15.888 12.096ZM15.36 9.29279C15.36 9.29279 15.312 9.48479 15.168 9.63839C14.976 9.83039 14.64 9.79199 14.64 9.79199H6.67196V7.48799H14.496C14.496 7.48799 14.976 7.44959 15.216 7.60319C15.36 7.79519 15.36 8.06399 15.36 8.06399V9.29279Z" fill="#FF0000"/>
<path d="M19.44 5.37601C20.3148 5.37601 21.024 4.80867 21.024 4.10881C21.024 3.40896 20.3148 2.84161 19.44 2.84161C18.5651 2.84161 17.856 3.40896 17.856 4.10881C17.856 4.80867 18.5651 5.37601 19.44 5.37601Z" fill="#FF0000"/>
</svg>
