<?xml version="1.0" standalone="no"?>
<!DOCTYPE svg PUBLIC "-//W3C//DTD SVG 20010904//EN"
 "http://www.w3.org/TR/2001/REC-SVG-20010904/DTD/svg10.dtd">
<svg version="1.0" xmlns="http://www.w3.org/2000/svg"
 width="418.000000pt" height="440.000000pt" viewBox="0 0 418.000000 440.000000"
 preserveAspectRatio="xMidYMid meet">

<g transform="translate(0.000000,440.000000) scale(0.100000,-0.100000)"
fill="#000000" stroke="none">
<path d="M1900 3938 c-102 -176 -186 -324 -188 -327 -1 -4 39 3 90 16 174 45
429 42 605 -7 35 -10 63 -14 61 -10 -9 22 -374 650 -378 650 -3 0 -88 -145
-190 -322z"/>
<path d="M880 3857 c-1 -25 72 -713 76 -726 3 -10 15 -2 36 25 129 162 320
298 552 393 29 12 19 17 -300 160 -388 174 -364 164 -364 148z"/>
<path d="M2950 3714 c-338 -150 -344 -153 -312 -165 180 -63 396 -212 517
-358 32 -39 62 -68 66 -63 7 8 83 731 78 737 -2 1 -159 -66 -349 -151z"/>
<path d="M1889 3540 c-561 -89 -1003 -509 -1125 -1070 -27 -121 -27 -419 0
-540 113 -519 499 -919 1008 -1046 127 -31 367 -43 499 -25 439 62 814 325
1013 709 60 117 91 199 124 332 23 94 26 124 27 290 0 205 -9 267 -61 428
-145 445 -497 775 -954 894 -103 27 -134 31 -295 33 -99 2 -205 0 -236 -5z"/>
<path d="M510 2920 c-195 -42 -360 -78 -367 -81 -7 -2 100 -129 240 -285 l252
-281 8 81 c20 216 86 416 194 585 19 29 33 54 31 55 -2 2 -163 -32 -358 -74z"/>
<path d="M3310 2994 c0 -2 15 -27 34 -56 111 -175 176 -383 198 -634 3 -29 18
-15 255 250 138 154 250 282 248 284 -2 2 -106 26 -232 52 -125 27 -290 62
-365 78 -76 16 -138 28 -138 26z"/>
<path d="M383 1846 c-140 -156 -247 -283 -240 -285 20 -8 722 -158 725 -155 2
1 -12 26 -31 55 -112 176 -178 384 -199 635 -3 30 -17 15 -255 -250z"/>
<path d="M3532 2016 c-19 -193 -72 -354 -167 -515 -30 -51 -55 -94 -55 -96 0
-1 60 10 133 26 72 15 231 49 352 74 121 25 228 49 237 53 14 6 -23 52 -194
242 -116 129 -230 256 -252 281 l-42 47 -12 -112z"/>
<path d="M956 1270 c-4 -14 -77 -702 -76 -727 0 -16 -24 -26 365 149 l330 147
-35 12 c-70 24 -247 120 -313 170 -78 59 -164 141 -225 214 -28 34 -42 45 -46
35z"/>
<path d="M3165 1218 c-126 -153 -288 -265 -530 -367 -28 -12 -19 -17 315 -166
190 -84 347 -151 349 -150 5 6 -71 729 -78 737 -3 4 -29 -20 -56 -54z"/>
<path d="M1712 791 c9 -23 374 -651 378 -651 4 0 369 627 378 649 1 4 -39 -3
-90 -17 -178 -45 -449 -40 -625 13 -24 7 -43 10 -41 6z"/>
</g>
</svg>
