<svg width="800" height="800" viewBox="0 0 800 800" fill="none" xmlns="http://www.w3.org/2000/svg">
<path d="M400 0C179.084 0 0 179.084 0 400C0 620.916 179.084 800 400 800C620.916 800 800 620.916 800 400C800 179.084 620.916 0 400 0Z" fill="#2B80FF"/>
<path d="M594.633 230.096L523.189 590.306C523.189 590.306 513.199 615.287 485.721 603.296L320.852 476.896L260.902 447.921L159.983 413.946C159.983 413.946 144.496 408.453 142.996 396.462C141.499 384.471 160.483 377.978 160.483 377.978L561.658 220.603C561.658 220.603 594.633 206.115 594.633 230.096Z" fill="white"/>
<path d="M308.181 586.261C308.181 586.261 303.368 585.811 297.371 566.823C291.377 547.839 260.902 447.92 260.902 447.92L503.206 294.045C503.206 294.045 517.196 285.552 516.696 294.045C516.696 294.045 519.193 295.542 511.699 302.536C504.206 309.533 321.352 473.898 321.352 473.898" fill="#D2E5F1"/>
<path d="M384.067 525.361L318.855 584.817C318.855 584.817 313.758 588.686 308.18 586.261L320.667 475.82" fill="#B5CFE4"/>
</svg>
