<svg width="800" height="800" viewBox="0 0 800 800" fill="none" xmlns="http://www.w3.org/2000/svg">
<rect x="117" y="183" width="587" height="431" fill="white"/>
<path d="M387.279 0.0752563C339.536 2.02899 295.595 11.1642 252.764 28.0617C188.226 53.5135 131.029 95.8101 87.3001 150.463C40.2964 209.129 10.6683 280.891 2.32378 355.926C0.475318 372.401 0 381.8 0 400.018C0 431.542 2.90472 457.892 9.77043 488.413C24.3468 553.574 56.4044 615.989 100.979 666.153C107.475 673.44 124.533 690.602 131.927 697.255C184.107 744.093 246.004 775.987 314.08 791.089C330.346 794.68 350.996 797.743 369.322 799.327C380.096 800.224 421.343 800.224 431.114 799.327C481.392 794.627 522.903 783.961 565.153 764.845C688.313 709.084 775.191 594.709 795.735 461.271C797.108 452.136 798.218 443.054 799.327 431.173C800.224 421.404 800.224 380.163 799.327 369.391C797.742 351.068 794.679 330.421 791.088 314.157C775.983 246.092 744.084 184.205 697.239 132.034C690.584 124.641 673.42 107.586 666.132 101.091C630.272 69.1965 586.807 42.9526 541.546 25.7911C505.316 12.1147 466.551 3.66595 426.624 0.814514C418.438 0.286438 394.303 -0.188782 387.279 0.0752563ZM230.001 247.148C231.691 294.831 240.722 340.982 255.246 375.516C273.889 419.978 300.507 451.661 334.201 469.509C339.694 472.413 350.943 477.06 355.063 478.169C356.383 478.486 357.862 478.855 358.39 479.014C359.235 479.278 359.288 473.258 359.288 358.091V236.851H404.707H450.126V306.026V375.252L452.133 374.936C473.1 371.556 492.06 362.421 512.446 345.946C517.938 341.51 530.666 328.996 536.159 322.659C547.883 309.088 560.03 290.871 567.477 275.61C573.92 262.409 578.568 250.95 581.314 241.393L582.582 237.115L628.054 236.957C653.087 236.904 673.526 237.01 673.526 237.221C673.367 241.181 666.132 268.587 663.703 274.29C663.227 275.346 662.277 277.828 661.537 279.887C657.576 290.871 647.911 310.461 641.574 320.283C625.836 344.837 611.84 362.051 593.989 378.738C580.839 391.041 563.41 404.453 552.795 410.368L550.788 411.476L555.805 414.011C578.779 425.522 602.598 443.106 623.195 463.806C650.182 490.895 670.727 522.366 685.039 558.432C687.785 565.402 693.912 583.62 694.229 585.89L694.387 587.21H644.479H594.57L592.458 581.138C586.859 565.191 579.994 551.409 570.751 537.574C565.206 529.336 563.833 527.488 559.925 522.736C532.356 489.522 497.869 469.456 457.943 463.436C453.982 462.803 450.602 462.327 450.443 462.327C450.285 462.327 450.073 490.419 450.021 524.742L449.862 587.21L440.62 587.316C410.094 587.58 379.093 583.936 351.366 576.861C341.859 574.432 325.223 569.31 321.526 567.62C320.681 567.25 317.565 565.983 314.661 564.874C293.43 556.636 266.442 540.848 249.436 526.802C219.386 501.931 197.046 474.103 178.614 438.829C152.683 389.087 137.525 327.411 133.776 256.284C133.512 250.581 133.248 243.874 133.248 241.393V236.851L181.466 236.957L229.631 237.115L230.001 247.148Z" fill="#2B80FF"/>
</svg>
