<svg width="255" height="20" viewBox="0 0 255 20" fill="none" xmlns="http://www.w3.org/2000/svg">
<path d="M5.80141 9.6C5.70541 10.176 5.68941 10.736 5.75341 11.28C5.83341 11.824 6.00141 12.32 6.25741 12.768C6.51341 13.2 6.85741 13.544 7.28941 13.8C7.73741 14.056 8.28941 14.184 8.94541 14.184C9.60141 14.2 10.2094 14.088 10.7694 13.848C11.3294 13.608 11.8334 13.28 12.2814 12.864C12.7294 12.432 13.0974 11.936 13.3854 11.376C13.6734 10.816 13.8814 10.224 14.0094 9.6C14.1054 9.008 14.1214 8.44 14.0574 7.896C13.9934 7.352 13.8334 6.864 13.5774 6.432C13.3374 6 12.9934 5.656 12.5454 5.4C12.0974 5.144 11.5374 5.008 10.8654 4.992C10.2094 4.992 9.60141 5.112 9.04141 5.352C8.48141 5.592 7.97741 5.928 7.52941 6.36C7.08141 6.776 6.71341 7.264 6.42541 7.824C6.13741 8.384 5.92941 8.976 5.80141 9.6ZM0.905406 9.6C1.09741 8.32 1.49741 7.144 2.10541 6.072C2.71341 5 3.47341 4.072 4.38541 3.288C5.31341 2.488 6.35341 1.872 7.50541 1.44C8.67341 0.991999 9.90541 0.767999 11.2014 0.767999C12.4814 0.767999 13.6334 0.999999 14.6574 1.464C15.6814 1.912 16.5374 2.544 17.2254 3.36C17.9134 4.16 18.4014 5.096 18.6894 6.168C18.9774 7.224 19.0414 8.368 18.8814 9.6C18.7054 10.864 18.3134 12.048 17.7054 13.152C17.1134 14.24 16.3534 15.2 15.4254 16.032C14.5134 16.848 13.4734 17.488 12.3054 17.952C11.1374 18.4 9.88941 18.624 8.56141 18.624C7.26541 18.624 6.10541 18.392 5.08141 17.928C4.05741 17.448 3.20141 16.792 2.51341 15.96C1.84141 15.128 1.36141 14.168 1.07341 13.08C0.785406 11.976 0.729406 10.816 0.905406 9.6ZM23.9373 12.504C23.8573 12.968 23.8893 13.384 24.0333 13.752C24.1773 14.12 24.4093 14.416 24.7293 14.64C25.0653 14.864 25.4733 14.984 25.9533 15C26.5773 15.016 27.1773 14.88 27.7533 14.592C28.3453 14.304 28.8573 13.936 29.2893 13.488L28.7853 17.376C28.3213 17.616 27.8173 17.824 27.2733 18C26.7453 18.16 26.1133 18.24 25.3773 18.24C24.1933 18.24 23.1453 18 22.2333 17.52C21.3373 17.024 20.6493 16.344 20.1693 15.48C19.7053 14.6 19.5533 13.592 19.7133 12.456C19.8733 11.304 20.2973 10.296 20.9853 9.432C21.6733 8.568 22.5373 7.904 23.5773 7.44C24.6173 6.96 25.7373 6.72 26.9373 6.72C27.6733 6.72 28.3053 6.8 28.8333 6.96C29.3773 7.12 29.8813 7.32 30.3453 7.56L29.7933 11.448C29.5053 10.952 29.1213 10.576 28.6413 10.32C28.1773 10.064 27.6813 9.936 27.1533 9.936C26.6573 9.936 26.1773 10.056 25.7133 10.296C25.2653 10.52 24.8813 10.824 24.5613 11.208C24.2413 11.592 24.0333 12.024 23.9373 12.504ZM33.476 13.32L33.812 11.208L39.476 11.184C39.476 10.848 39.444 10.552 39.38 10.296C39.316 10.024 39.188 9.808 38.996 9.648C38.804 9.472 38.524 9.376 38.156 9.36C37.692 9.344 37.284 9.456 36.932 9.696C36.596 9.936 36.316 10.256 36.092 10.656C35.868 11.056 35.708 11.488 35.612 11.952L35.444 12.48C35.38 13.008 35.38 13.488 35.444 13.92C35.524 14.336 35.692 14.672 35.948 14.928C36.204 15.184 36.548 15.328 36.98 15.36C37.38 15.36 37.74 15.312 38.06 15.216C38.38 15.104 38.668 14.952 38.924 14.76C39.196 14.568 39.436 14.352 39.644 14.112L43.34 14.904C42.876 15.56 42.34 16.144 41.732 16.656C41.124 17.168 40.428 17.56 39.644 17.832C38.86 18.104 37.98 18.24 37.004 18.24C35.708 18.24 34.612 17.992 33.716 17.496C32.82 17 32.156 16.32 31.724 15.456C31.308 14.576 31.18 13.576 31.34 12.456C31.372 12.248 31.404 12.056 31.436 11.88C31.484 11.688 31.54 11.496 31.604 11.304C31.892 10.376 32.348 9.568 32.972 8.88C33.596 8.192 34.364 7.664 35.276 7.296C36.204 6.912 37.244 6.72 38.396 6.72C39.644 6.72 40.684 6.952 41.516 7.416C42.364 7.88 42.972 8.528 43.34 9.36C43.724 10.176 43.852 11.152 43.724 12.288C43.708 12.416 43.684 12.576 43.652 12.768C43.62 12.944 43.588 13.128 43.556 13.32H33.476ZM46.5602 13.656L47.0882 10.704H56.0642L55.5362 13.656H46.5602ZM54.8882 6.96H58.8482L56.9522 18H53.0162L54.8882 6.96ZM46.6322 6.96H50.5922L48.6962 18H44.7122L46.6322 6.96ZM61.232 13.656L61.76 10.704H70.736L70.208 13.656H61.232ZM69.56 6.96H73.52L71.624 18H67.688L69.56 6.96ZM61.304 6.96H65.264L63.368 18H59.384L61.304 6.96ZM86.8719 10.512L73.8399 19.032L74.8479 14.448L87.8559 5.904L86.8719 10.512ZM79.9599 6.96L78.4959 15.336L73.8399 19.032L75.9999 6.96H79.9599ZM87.8559 5.904L85.7199 18H81.7599L83.2239 9.624L87.8559 5.904ZM100.981 10.512L87.9493 19.032L88.9573 14.448L101.965 5.904L100.981 10.512ZM94.0693 6.96L92.6053 15.336L87.9493 19.032L90.1093 6.96H94.0693ZM101.965 5.904L99.8293 18H95.8693L97.3333 9.624L101.965 5.904ZM92.7973 1.296H95.2693C95.2693 1.536 95.3093 1.752 95.3893 1.944C95.4853 2.136 95.6133 2.288 95.7733 2.4C95.9333 2.512 96.1333 2.568 96.3733 2.568C96.6293 2.584 96.8693 2.536 97.0933 2.424C97.3173 2.312 97.5013 2.16 97.6453 1.968C97.8053 1.76 97.9173 1.536 97.9813 1.296L100.573 1.32C100.445 1.976 100.189 2.568 99.8053 3.096C99.4213 3.624 98.9333 4.048 98.3413 4.368C97.7493 4.672 97.0533 4.824 96.2533 4.824C95.4693 4.824 94.8133 4.672 94.2853 4.368C93.7573 4.064 93.3653 3.648 93.1093 3.12C92.8693 2.576 92.7653 1.968 92.7973 1.296ZM113.405 14.712C113.389 15 113.485 15.224 113.693 15.384C113.917 15.544 114.173 15.632 114.461 15.648C114.877 15.664 115.261 15.584 115.613 15.408C115.981 15.232 116.285 14.984 116.525 14.664C116.781 14.328 116.965 13.936 117.077 13.488L117.269 14.904C117.125 15.576 116.845 16.16 116.429 16.656C116.029 17.152 115.525 17.536 114.917 17.808C114.325 18.08 113.653 18.224 112.901 18.24C112.165 18.24 111.509 18.104 110.933 17.832C110.357 17.56 109.917 17.176 109.613 16.68C109.309 16.168 109.205 15.56 109.301 14.856C109.413 14.088 109.709 13.448 110.189 12.936C110.669 12.424 111.277 12.032 112.013 11.76C112.765 11.488 113.573 11.352 114.437 11.352C115.141 11.336 115.821 11.432 116.477 11.64C117.133 11.848 117.661 12.12 118.061 12.456L117.821 14.328C117.469 14.04 117.109 13.824 116.741 13.68C116.373 13.52 115.925 13.448 115.397 13.464C115.109 13.464 114.821 13.512 114.533 13.608C114.245 13.704 113.997 13.848 113.789 14.04C113.581 14.216 113.453 14.44 113.405 14.712ZM112.421 10.608L111.461 7.824C112.213 7.52 113.029 7.248 113.909 7.008C114.805 6.752 115.725 6.624 116.669 6.624C117.341 6.624 117.981 6.704 118.589 6.864C119.213 7.008 119.765 7.232 120.245 7.536C120.725 7.84 121.077 8.216 121.301 8.664C121.541 9.112 121.613 9.648 121.517 10.272L120.221 18H116.237L117.509 11.184C117.557 10.896 117.533 10.648 117.437 10.44C117.357 10.232 117.197 10.064 116.957 9.936C116.733 9.808 116.453 9.736 116.117 9.72C115.397 9.672 114.701 9.768 114.029 10.008C113.373 10.232 112.837 10.432 112.421 10.608ZM124.42 13.656L124.948 10.704H133.924L133.396 13.656H124.42ZM132.748 6.96H136.708L134.812 18H130.876L132.748 6.96ZM124.492 6.96H128.452L126.556 18H122.572L124.492 6.96ZM150.059 10.512L137.027 19.032L138.035 14.448L151.043 5.904L150.059 10.512ZM143.147 6.96L141.683 15.336L137.027 19.032L139.187 6.96H143.147ZM151.043 5.904L148.907 18H144.947L146.411 9.624L151.043 5.904ZM161.673 18L161.577 10.584L164.385 5.928L165.681 18H161.673ZM157.857 14.232L164.385 5.928L163.713 11.472L157.857 18.768V14.232ZM157.857 18.768L154.545 11.112L155.625 6.072L159.249 14.592L157.857 18.768ZM150.153 18L155.625 6.072L156.849 10.992L154.329 18H150.153ZM169.601 13.32L169.937 11.208L175.601 11.184C175.601 10.848 175.569 10.552 175.505 10.296C175.441 10.024 175.313 9.808 175.121 9.648C174.929 9.472 174.649 9.376 174.281 9.36C173.817 9.344 173.409 9.456 173.057 9.696C172.721 9.936 172.441 10.256 172.217 10.656C171.993 11.056 171.833 11.488 171.737 11.952L171.569 12.48C171.505 13.008 171.505 13.488 171.569 13.92C171.649 14.336 171.817 14.672 172.073 14.928C172.329 15.184 172.673 15.328 173.105 15.36C173.505 15.36 173.865 15.312 174.185 15.216C174.505 15.104 174.793 14.952 175.049 14.76C175.321 14.568 175.561 14.352 175.769 14.112L179.465 14.904C179.001 15.56 178.465 16.144 177.857 16.656C177.249 17.168 176.553 17.56 175.769 17.832C174.985 18.104 174.105 18.24 173.129 18.24C171.833 18.24 170.737 17.992 169.841 17.496C168.945 17 168.281 16.32 167.849 15.456C167.433 14.576 167.305 13.576 167.465 12.456C167.497 12.248 167.529 12.056 167.561 11.88C167.609 11.688 167.665 11.496 167.729 11.304C168.017 10.376 168.473 9.568 169.097 8.88C169.721 8.192 170.489 7.664 171.401 7.296C172.329 6.912 173.369 6.72 174.521 6.72C175.769 6.72 176.809 6.952 177.641 7.416C178.489 7.88 179.097 8.528 179.465 9.36C179.849 10.176 179.977 11.152 179.849 12.288C179.833 12.416 179.809 12.576 179.777 12.768C179.745 12.944 179.713 13.128 179.681 13.32H169.601ZM192.664 12.504C192.584 12.968 192.616 13.384 192.76 13.752C192.904 14.12 193.136 14.416 193.456 14.64C193.792 14.864 194.2 14.984 194.68 15C195.304 15.016 195.904 14.88 196.48 14.592C197.072 14.304 197.584 13.936 198.016 13.488L197.512 17.376C197.048 17.616 196.544 17.824 196 18C195.472 18.16 194.84 18.24 194.104 18.24C192.92 18.24 191.872 18 190.96 17.52C190.064 17.024 189.376 16.344 188.896 15.48C188.432 14.6 188.28 13.592 188.44 12.456C188.6 11.304 189.024 10.296 189.712 9.432C190.4 8.568 191.264 7.904 192.304 7.44C193.344 6.96 194.464 6.72 195.664 6.72C196.4 6.72 197.032 6.8 197.56 6.96C198.104 7.12 198.608 7.32 199.072 7.56L198.52 11.448C198.232 10.952 197.848 10.576 197.368 10.32C196.904 10.064 196.408 9.936 195.88 9.936C195.384 9.936 194.904 10.056 194.44 10.296C193.992 10.52 193.608 10.824 193.288 11.208C192.968 11.592 192.76 12.024 192.664 12.504ZM202.203 13.32L202.539 11.208L208.203 11.184C208.203 10.848 208.171 10.552 208.107 10.296C208.043 10.024 207.915 9.808 207.723 9.648C207.531 9.472 207.251 9.376 206.883 9.36C206.419 9.344 206.011 9.456 205.659 9.696C205.323 9.936 205.043 10.256 204.819 10.656C204.595 11.056 204.435 11.488 204.339 11.952L204.171 12.48C204.107 13.008 204.107 13.488 204.171 13.92C204.251 14.336 204.419 14.672 204.675 14.928C204.931 15.184 205.275 15.328 205.707 15.36C206.107 15.36 206.467 15.312 206.787 15.216C207.107 15.104 207.395 14.952 207.651 14.76C207.923 14.568 208.163 14.352 208.371 14.112L212.067 14.904C211.603 15.56 211.067 16.144 210.459 16.656C209.851 17.168 209.155 17.56 208.371 17.832C207.587 18.104 206.707 18.24 205.731 18.24C204.435 18.24 203.339 17.992 202.443 17.496C201.547 17 200.883 16.32 200.451 15.456C200.035 14.576 199.907 13.576 200.067 12.456C200.099 12.248 200.131 12.056 200.163 11.88C200.211 11.688 200.267 11.496 200.331 11.304C200.619 10.376 201.075 9.568 201.699 8.88C202.323 8.192 203.091 7.664 204.003 7.296C204.931 6.912 205.971 6.72 207.123 6.72C208.371 6.72 209.411 6.952 210.243 7.416C211.091 7.88 211.699 8.528 212.067 9.36C212.451 10.176 212.579 11.152 212.451 12.288C212.435 12.416 212.411 12.576 212.379 12.768C212.347 12.944 212.315 13.128 212.283 13.32H202.203ZM219.727 12.504L219.967 11.256C220.303 11.224 220.607 11.136 220.879 10.992C221.151 10.848 221.303 10.64 221.335 10.368C221.351 10.224 221.327 10.104 221.263 10.008C221.215 9.896 221.127 9.808 220.999 9.744C220.871 9.664 220.719 9.624 220.543 9.624C220.319 9.608 220.119 9.656 219.943 9.768C219.767 9.864 219.623 10 219.511 10.176C219.399 10.336 219.319 10.528 219.271 10.752L215.551 10.704C215.711 9.904 216.015 9.208 216.463 8.616C216.927 8.008 217.519 7.544 218.239 7.224C218.959 6.888 219.783 6.72 220.711 6.72C221.495 6.72 222.239 6.848 222.943 7.104C223.647 7.36 224.207 7.728 224.623 8.208C225.039 8.688 225.199 9.28 225.103 9.984C225.007 10.64 224.703 11.16 224.191 11.544C223.679 11.912 223.031 12.168 222.247 12.312C221.479 12.456 220.639 12.52 219.727 12.504ZM219.103 18.24C217.615 18.24 216.439 17.88 215.575 17.16C214.711 16.44 214.263 15.424 214.231 14.112L217.951 14.136C218.047 14.504 218.199 14.808 218.407 15.048C218.615 15.272 218.919 15.384 219.319 15.384C219.623 15.384 219.895 15.336 220.135 15.24C220.375 15.144 220.567 15.016 220.711 14.856C220.871 14.68 220.967 14.48 220.999 14.256C221.047 14 221.007 13.8 220.879 13.656C220.767 13.496 220.599 13.384 220.375 13.32C220.167 13.24 219.919 13.192 219.631 13.176L219.847 11.76C220.743 11.744 221.583 11.832 222.367 12.024C223.151 12.216 223.767 12.536 224.215 12.984C224.679 13.416 224.855 14.016 224.743 14.784C224.647 15.536 224.319 16.168 223.759 16.68C223.199 17.192 222.503 17.584 221.671 17.856C220.855 18.112 219.999 18.24 219.103 18.24ZM226.808 12.456C226.968 11.304 227.384 10.296 228.056 9.432C228.744 8.568 229.6 7.896 230.624 7.416C231.648 6.936 232.752 6.696 233.936 6.696C235.12 6.696 236.152 6.944 237.032 7.44C237.928 7.936 238.6 8.616 239.048 9.48C239.512 10.344 239.664 11.344 239.504 12.48C239.36 13.632 238.944 14.64 238.256 15.504C237.584 16.368 236.736 17.04 235.712 17.52C234.704 18 233.592 18.24 232.376 18.24C231.224 18.24 230.2 18 229.304 17.52C228.408 17.024 227.728 16.344 227.264 15.48C226.8 14.6 226.648 13.592 226.808 12.456ZM231.032 12.504C230.968 12.904 230.984 13.288 231.08 13.656C231.176 14.008 231.352 14.296 231.608 14.52C231.88 14.728 232.208 14.84 232.592 14.856C233.024 14.872 233.424 14.776 233.792 14.568C234.176 14.344 234.504 14.048 234.776 13.68C235.048 13.312 235.216 12.904 235.28 12.456C235.36 12.04 235.344 11.656 235.232 11.304C235.136 10.936 234.96 10.64 234.704 10.416C234.448 10.192 234.12 10.072 233.72 10.056C233.304 10.04 232.904 10.144 232.52 10.368C232.136 10.592 231.808 10.896 231.536 11.28C231.28 11.648 231.112 12.056 231.032 12.504ZM242.287 13.656L242.815 10.704H251.791L251.263 13.656H242.287ZM250.615 6.96H254.575L252.679 18H248.743L250.615 6.96ZM242.359 6.96H246.319L244.423 18H240.439L242.359 6.96Z" fill="#F0B800"/>
</svg>
